<?xml version="1.0" encoding="UTF-8"?>
<svg xmlns="http://www.w3.org/2000/svg" xmlns:xlink="http://www.w3.org/1999/xlink" id="a" width="865.76" height="682.89" viewBox="0 0 865.76 682.89">
  <defs>
    <clipPath id="b">
      <path d="M509.18,224.81v-10.91c0-1.17,.95-2.12,2.12-2.12h19.35c.55,0,1.08-.22,1.48-.6l4.36-4.24,11.24,11.81-12.43,13.38-44.48,13.9c-.62,.19-1.05,.77-1.05,1.43v73.59h-19.86v-81.64c0-.95,.62-1.78,1.53-2.04l36.2-10.49c.91-.26,1.54-1.1,1.54-2.05v-.02Z" fill="none"></path>
    </clipPath>
  </defs>
  <g>
    <g>
      <path d="M763.77,467.33c-30.7,87.72-104.04,161.49-194.18,184.13-92.86,23.32-191.54-7.68-274.7-55.12-51.66-29.47-100.15-65.81-137.29-112.25-37.14-46.45-62.42-103.66-64.45-163.09-2.63-77.09,34.81-152.71,92.11-204.35S318.01,36.09,394.59,26.78c63.71-7.75,129.85-2.31,189.09,22.39,163.37,68.11,238.05,252.59,180.1,418.18v-.02Z" fill="#F97316"></path>
      <path d="M841.82,216.72c-5.36-19.5-17.96-36.92-34.8-48.12-8.44-5.62-20.89-9.22-27.85-1.84-4.92,5.22-4.45,13.38-3.49,20.49,2.65,19.55,6.66,38.93,11.98,57.93,3.82,13.67,8.04,37.42,21.69,45.33,32.89,19.06,37.12-56.83,32.46-73.78h0Z" fill="#F97316"></path>
      <path d="M67.13,350.23c2.08,40.05,13.98,82.22,42.5,110.42,18.28,18.07,16.89,35.11-8.76,30.63-44.43-7.76-66.73-50.76-75.89-90.76-8.23-35.97,3.47-99.54,28.28-108.55,15.04-5.46,12.97,40.86,13.87,58.27h0Z" fill="#F97316"></path>
    </g>
    <g opacity=".8">
      <path d="M763.77,467.33c-30.7,87.72-104.04,161.49-194.18,184.13-92.86,23.32-191.54-7.68-274.7-55.12-51.66-29.47-100.15-65.81-137.29-112.25-37.14-46.45-62.42-103.66-64.45-163.09-2.63-77.09,34.81-152.71,92.11-204.35S318.01,36.09,394.59,26.78c63.71-7.75,129.85-2.31,189.09,22.39,163.37,68.11,238.05,252.59,180.1,418.18v-.02Z" fill="#fff"></path>
      <path d="M841.82,216.72c-5.36-19.5-17.96-36.92-34.8-48.12-8.44-5.62-20.89-9.22-27.85-1.84-4.92,5.22-4.45,13.38-3.49,20.49,2.65,19.55,6.66,38.93,11.98,57.93,3.82,13.67,8.04,37.42,21.69,45.33,32.89,19.06,37.12-56.83,32.46-73.78h0Z" fill="#fff"></path>
      <path d="M67.13,350.23c2.08,40.05,13.98,82.22,42.5,110.42,18.28,18.07,16.89,35.11-8.76,30.63-44.43-7.76-66.73-50.76-75.89-90.76-8.23-35.97,3.47-99.54,28.28-108.55,15.04-5.46,12.97,40.86,13.87,58.27h0Z" fill="#fff"></path>
    </g>
  </g>
  <g>
    <g>
      <rect x="532.21" y="32.18" width="166.57" height="105.47" fill="#e6e7e8"></rect>
      <rect x="528.86" y="28.96" width="166.57" height="105.47" fill="#fff"></rect>
      <rect x="555.11" y="161.98" width="200.82" height="129.71" fill="#e6e7e8"></rect>
      <rect x="551.57" y="158.49" width="200.82" height="129.71" fill="#fff"></rect>
      <polygon points="747.61 153.98 747.61 154.25 747.88 154.25 747.61 153.98" fill="#bbd9f2"></polygon>
      <circle cx="587.26" cy="108.51" r="6.48" fill="#F97316"></circle>
      <circle cx="648.02" cy="82.53" r="8.83" fill="#F97316"></circle>
      <path d="M572.9,49.93c-3.55,0-6.43,2.88-6.43,6.43s2.88,6.43,6.43,6.43,6.43-2.88,6.43-6.43-2.88-6.43-6.43-6.43h0Z" fill="#F97316"></path>
      <circle cx="598.58" cy="54.96" r="5.03" fill="#F97316"></circle>
      <circle cx="606.4" cy="75.04" r="9.95" fill="#F97316"></circle>
      <path d="M602.04,83.53c-.19-.12-.45-.06-.57,.13h0l-11.72,18.81c-.12,.19-.06,.45,.13,.57,.07,.04,.14,.06,.22,.06,.14,0,.27-.07,.35-.19l11.72-18.81c.12-.19,.06-.45-.13-.57h0Z" fill="#F97316"></path>
      <path d="M639.27,81.36l-23.59-3c-.22-.03-.43,.13-.46,.35h0c-.03,.22,.13,.43,.35,.46h0l23.59,3h.05c.23-.03,.39-.23,.36-.46-.02-.17-.14-.31-.31-.35h.01Z" fill="#F97316"></path>
      <path d="M597.7,70.25l-18.99-11.1c-.2-.11-.45-.05-.56,.15s-.05,.45,.15,.56h0l18.99,11.1c.19,.12,.45,.07,.57-.12s.07-.45-.12-.57c-.01,0-.02-.01-.03-.02h-.01Z" fill="#F97316"></path>
      <path d="M601.41,59.14c-.1-.2-.35-.28-.56-.18-.2,.1-.28,.35-.18,.56,0,0,.01,.02,.02,.03l3.33,5.96c.12,.19,.37,.26,.57,.14,.18-.11,.25-.35,.15-.54l-3.33-5.96h0Z" fill="#F97316"></path>
      <path d="M641.91,218.95c-.39-.06-.78-.06-1.16-.02-.41,.03-.82,.09-1.23,.19-1.06,.27-2.09,.65-3.07,1.13-2.9,1.4-6.84,1.26-6.84,1.26l-.14,.15c-.07-.72-.18-1.43-.32-2.12-.21-.98,.38-1.95,1.35-2.22,1.5-.39,3.42-.76,4.75-.58,2.49,.34,4.38-.08,5.16-.35,0,0,4.06-1.53,2.72-5.91-.72-2.35-2.94-3.8-5.29-3.42-.38,.07-.76,.19-1.11,.35-.38,.16-.75,.34-1.1,.56-.92,.58-1.78,1.26-2.56,2.03-2.32,2.24-6.1,3.33-6.1,3.33l-.08,.15c-.23-.42-.49-.83-.75-1.23-.55-.83-.37-1.94,.42-2.55,1.2-.91,2.7-1.92,3.94-2.25,2.43-.67,4-1.8,4.61-2.35,0,0,3.13-3,.18-6.51-1.59-1.89-4.2-2.33-6.21-1.06-.33,.21-.62,.47-.89,.76-.29,.3-.56,.61-.8,.95-.62,.9-1.14,1.86-1.56,2.88-.69,1.64-1.93,3.13-2.89,4.14-.65,.66-1.67,.76-2.43,.23l-.36-.24c-.86-.56-1.12-1.71-.57-2.59,.81-1.3,1.92-2.83,2.97-3.59,2.04-1.47,3.13-3.08,3.51-3.81,0,0,1.89-3.9-2.1-6.17-2.14-1.21-4.75-.73-6.19,1.16-.23,.31-.42,.65-.56,1.02-.17,.38-.31,.77-.42,1.17-.27,1.06-.42,2.15-.46,3.24-.14,3.22-2.14,6.62-2.14,6.62l.08,.25c-.39-.11-.78-.21-1.17-.3-.89-.2-1.51-1.02-1.46-1.93,.09-1.62,.34-3.95,1.03-5.31,1.13-2.25,1.35-4.17,1.35-4.99,0,0-.12-4.34-4.71-4.5-2.46-.09-4.55,1.55-4.95,3.89-.06,.38-.07,.77-.03,1.16,.02,.42,.08,.83,.17,1.23,.25,1.06,.61,2.1,1.08,3.08,1.36,2.92,1.17,6.86,1.17,6.86l.09,.09c-.78,.06-1.56,.17-2.33,.32-.97,.19-1.92-.4-2.18-1.35-.39-1.48-.77-3.34-.6-4.64,.32-2.49-.12-4.38-.4-5.15,0,0-1.56-4.05-5.94-2.67-2.35,.74-3.78,2.97-3.37,5.32,.07,.38,.19,.75,.36,1.11,.16,.38,.35,.75,.57,1.1,.59,.92,1.28,1.77,2.06,2.54,1.17,1.19,2.16,2.89,2.85,4.26,.43,.86,.14,1.91-.66,2.43-.18,.12-.36,.23-.54,.36-.82,.56-1.93,.4-2.55-.38-.89-1.11-1.81-2.45-2.16-3.56-.76-2.4-1.94-3.93-2.52-4.51,0,0-3.12-3.02-6.51,.07-1.82,1.66-2.17,4.28-.83,6.24,.23,.32,.49,.6,.79,.86,.31,.28,.64,.53,.98,.76,.92,.58,1.91,1.07,2.93,1.44,1.37,.57,2.65,1.32,3.82,2.24,.79,.6,.98,1.72,.43,2.55l-.04,.06c-.54,.82-1.62,1.08-2.48,.61-1.27-.71-2.68-1.62-3.43-2.55-1.6-1.94-3.27-2.92-4.03-3.24,0,0-4.02-1.64-6.02,2.49-1.08,2.22-.42,4.79,1.56,6.1,.33,.21,.68,.38,1.05,.5,.39,.14,.79,.26,1.19,.34,1.08,.2,2.17,.28,3.26,.25,1.53,.02,3.04,.25,4.5,.69,.96,.26,1.55,1.22,1.35,2.2v.03c-.19,.95-1.07,1.6-2.04,1.5-1.39-.13-2.94-.39-3.96-.9-2.25-1.12-4.18-1.33-5-1.31,0,0-4.34,.15-4.47,4.74-.07,2.46,1.58,4.54,3.92,4.92,.39,.06,.78,.06,1.17,.02,.41-.03,.82-.09,1.23-.18,1.06-.26,2.09-.63,3.08-1.11,1.23-.54,2.53-.92,3.86-1.13,1.01-.16,1.97,.51,2.16,1.51,.04,.22,.09,.44,.13,.66,.22,.99-.38,1.98-1.37,2.24-1.44,.37-3.19,.69-4.42,.54-2.49-.33-4.38,.1-5.16,.38,0,0-4.05,1.55-2.7,5.94,.73,2.35,2.97,3.78,5.31,3.39,.38-.07,.76-.19,1.11-.35,.38-.16,.75-.35,1.1-.57,.94-.6,1.8-1.3,2.59-2.08,1.21-1.19,2.95-2.18,4.32-2.86,.84-.42,1.86-.15,2.39,.62,.08,.11,.15,.22,.23,.33,.61,.84,.43,2.02-.41,2.64-1.2,.87-2.7,1.81-3.9,2.11-2.43,.62-4.05,1.71-4.65,2.26,0,0-3.2,2.94-.31,6.51,1.55,1.91,4.15,2.43,6.18,1.19,.33-.21,.63-.46,.9-.74,.29-.29,.57-.6,.81-.93,.64-.89,1.18-1.84,1.62-2.85,.72-1.62,2.03-3.24,3.07-4.38,.62-.68,1.64-.82,2.42-.32l.05,.03c.81,.52,1.1,1.57,.67,2.43-.72,1.43-1.8,3.32-2.91,4.26-1.92,1.62-2.88,3.31-3.19,4.07,0,0-1.58,4.05,2.58,5.98,2.23,1.04,4.8,.35,6.08-1.66,.2-.33,.36-.68,.48-1.05,.14-.39,.25-.79,.32-1.2,.18-1.08,.25-2.17,.2-3.26-.06-1.78,.41-3.85,.85-5.35,.28-.93,1.23-1.5,2.18-1.31l.47,.09c.96,.17,1.63,1.03,1.56,2-.12,1.57-.39,3.6-1.02,4.83-1.14,2.24-1.37,4.17-1.37,4.99,0,0,.11,4.34,4.69,4.52,2.46,.09,4.55-1.53,4.97-3.87,.06-.38,.07-.77,.04-1.16-.02-.41-.08-.83-.17-1.23-.25-1.07-.61-2.1-1.08-3.09-.71-1.54-1.08-3.51-1.26-5.05-.12-.99,.55-1.9,1.53-2.08l.43-.09c.98-.23,1.97,.35,2.24,1.32,.44,1.55,.92,3.71,.73,5.16-.32,2.49,.11,4.38,.39,5.16,0,0,1.56,4.05,5.94,2.68,2.35-.74,3.78-2.97,3.38-5.32-.07-.38-.19-.75-.36-1.1-.16-.38-.35-.75-.57-1.1-.59-.92-1.28-1.77-2.05-2.55-2.25-2.3-3.84-6.5-3.84-6.5l-.07-.03c.6-.35,1.19-.72,1.75-1.13,.82-.59,1.96-.44,2.59,.35,.99,1.26,2.21,3.03,2.58,4.42,.65,2.43,1.77,4.01,2.32,4.62,0,0,2.97,3.16,6.51,.22,1.89-1.57,2.37-4.19,1.1-6.21-.21-.32-.45-.61-.73-.87-.3-.3-.62-.57-.96-.81-.9-.63-1.86-1.15-2.86-1.58-2.97-1.27-6.03-4.55-6.03-4.55h0c.26-.34,.5-.69,.74-1.04,.51-.77,1.5-1.05,2.34-.66,1.47,.68,3.61,1.79,4.64,2.95,1.67,1.89,3.38,2.79,4.15,3.09,0,0,4.08,1.48,5.91-2.72,.99-2.26,.23-4.8-1.8-6.03-.34-.2-.69-.35-1.07-.46-.39-.13-.8-.23-1.21-.29-1.08-.16-2.18-.2-3.27-.12-3.22,.19-6.81-1.44-6.81-1.44l-.27,.12c.19-.64,.35-1.28,.48-1.94,.19-.9,1.01-1.54,1.93-1.5,1.62,.07,3.96,.28,5.34,.96,2.26,1.1,4.19,1.29,5.01,1.27,0,0,4.34-.18,4.43-4.77,.01-2.45-1.65-4.52-4-4.9h.05Z" fill="#F97316"></path>
      <g opacity=".2">
        <circle cx="608.57" cy="223.77" r="13.98"></circle>
      </g>
      <path d="M729.36,226.29h-6.17c-.42-4.59-2.24-8.94-5.21-12.46l4.32-4.32c.81-.82,.8-2.13-.02-2.94-.81-.8-2.11-.8-2.92,0l-4.34,4.34c-1.41-1.15-2.95-2.13-4.59-2.91l1.97-5.76c.37-1.08-.2-2.27-1.29-2.64-1.08-.37-2.27,.2-2.64,1.29l-1.93,5.67c-4.38-1.16-9-.98-13.27,.52l-3.21-5.56c-.57-.99-1.84-1.33-2.84-.76-.99,.57-1.33,1.84-.76,2.84h0l3.02,5.23c-1.07,.62-2.09,1.33-3.05,2.11l-4.45-4.45c-.84-.79-2.15-.74-2.93,.09-.75,.8-.75,2.04,0,2.84l4.44,4.44c-1.23,1.45-2.26,3.06-3.08,4.77l-5.89-2.01c-1.09-.37-2.27,.21-2.64,1.29s.2,2.27,1.29,2.64l5.8,1.98c-.33,1.23-.55,2.49-.67,3.76h-5.99c-1.15,0-2.08,.93-2.08,2.08s.93,2.08,2.08,2.08h5.99c.41,4.46,2.14,8.7,4.98,12.17l-4.48,4.47c-.81,.82-.8,2.13,.02,2.94,.81,.8,2.11,.8,2.92,0l4.45-4.45c1.51,1.28,3.17,2.35,4.95,3.19l-2.05,5.8c-.41,1.07,.12,2.27,1.19,2.68s2.27-.12,2.68-1.19c.01-.04,.03-.07,.04-.11l2.04-5.77c4.3,1.12,8.84,.95,13.05-.49l2.88,5.44c.54,1.01,1.79,1.4,2.81,.86h0c1.01-.54,1.4-1.79,.87-2.81h0l-2.75-5.19c1.05-.6,2.06-1.28,3-2.05l4.67,4.03c.82,.8,2.14,.77,2.94-.05s.77-2.14-.05-2.94c-.06-.06-.12-.11-.19-.16l-4.39-3.78c1.3-1.52,2.4-3.21,3.26-5.02l5.59,1.68c1.1,.33,2.26-.29,2.59-1.39s-.29-2.26-1.39-2.59l-5.36-1.62c.31-1.2,.53-2.42,.64-3.66h6.17c1.15,0,2.08-.93,2.08-2.08s-.93-2.08-2.08-2.08h-.02Z" fill="#F97316"></path>
      <g opacity=".2">
        <path d="M700.74,213.14c-8.41,0-15.23,6.82-15.23,15.23s6.82,15.23,15.23,15.23,15.23-6.82,15.23-15.23h0c0-8.41-6.82-15.22-15.23-15.23Z"></path>
      </g>
      <path d="M585.14,173.41h-21.77c-.06,0-.11,.05-.11,.11s.05,.11,.11,.11h21.66l11.82,19.48s.06,.05,.1,.05c.02,0,.04,0,.06-.02,.05-.03,.07-.1,.04-.15h0l-11.9-19.59h0Z" fill="#231f20"></path>
      <path d="M572.88,176.47h-9.23c-.06,0-.11,.05-.11,.11s.05,.11,.11,.11h9.23c.06,0,.11-.05,.11-.11s-.05-.11-.11-.11h0Z" fill="#231f20"></path>
      <path d="M584.97,176.47h-9.33c-.06,0-.11,.05-.11,.11s.05,.11,.11,.11h9.33c.06,0,.11-.05,.11-.11s-.05-.11-.11-.11Z" fill="#231f20"></path>
      <path d="M578.37,179.95h-14.72c-.06,0-.12,.03-.13,.09s.03,.12,.09,.13h14.75c.06,0,.1-.07,.09-.13,0-.05-.05-.09-.09-.09h0Z" fill="#231f20"></path>
      <path d="M584.97,179.95h-5.29c-.06,0-.1,.07-.09,.13,0,.05,.05,.09,.09,.09h5.29c.06,0,.1-.07,.09-.13,0-.05-.05-.09-.09-.09Z" fill="#231f20"></path>
      <path d="M572.88,182.98h-9.23c-.06,0-.11,.05-.11,.11h0c0,.07,.05,.12,.11,.12h9.23c.06,0,.11-.05,.11-.11h0c0-.06-.05-.11-.11-.11h0Z" fill="#231f20"></path>
      <path d="M584.97,182.98h-9.33c-.06,0-.11,.05-.11,.11s.05,.11,.11,.11h9.33c.06,0,.11-.05,.11-.11s-.05-.11-.11-.11Z" fill="#231f20"></path>
      <path d="M568.99,186.4h-5.34c-.06,0-.12,.03-.13,.09s.03,.12,.09,.13h5.37c.06,0,.1-.07,.09-.13,0-.05-.05-.09-.09-.09h0Z" fill="#231f20"></path>
      <path d="M743.3,184.53h-21.77l-11.88,19.59c-.03,.05-.01,.12,.04,.15,.02,0,.04,.02,.06,.02,.04,0,.07-.02,.09-.05l11.83-19.48h21.65c.06,0,.1-.07,.09-.13,0-.05-.05-.09-.09-.09h-.02Z" fill="#231f20"></path>
      <path d="M743.03,187.59h-9.23c-.06,0-.1,.07-.09,.13,0,.05,.05,.09,.09,.09h9.24c.06,0,.1-.07,.09-.13,0-.05-.05-.09-.09-.09h-.01Z" fill="#231f20"></path>
      <path d="M731.03,187.59h-9.32c-.06,0-.12,.03-.13,.09s.03,.12,.09,.13h9.35c.06,0,.12-.03,.13-.09s-.03-.12-.09-.13h-.03Z" fill="#231f20"></path>
      <path d="M743.03,191.07h-14.73c-.06,0-.1,.07-.09,.13,0,.05,.05,.09,.09,.09h14.73c.06,0,.1-.07,.09-.13,0-.05-.05-.09-.09-.09Z" fill="#231f20"></path>
      <path d="M726.99,191.07h-5.29c-.06,0-.12,.03-.13,.09s.03,.12,.09,.13h5.32c.06,0,.1-.07,.09-.13,0-.05-.05-.09-.09-.09h0Z" fill="#231f20"></path>
      <path d="M743.03,194.11h-9.23c-.06,0-.11,.05-.11,.11s.05,.11,.11,.11h9.24c.06,0,.11-.05,.11-.11s-.05-.11-.11-.11h-.01Z" fill="#231f20"></path>
      <path d="M731.03,194.11h-9.32c-.06,0-.11,.05-.11,.11s.05,.11,.11,.11h9.32c.06,0,.11-.05,.11-.11s-.05-.11-.11-.11Z" fill="#231f20"></path>
      <path d="M743.03,197.53h-5.35c-.06,0-.11,.05-.11,.11s.05,.11,.11,.11h5.35c.06,0,.11-.05,.11-.11s-.05-.11-.11-.11Z" fill="#231f20"></path>
      <path d="M687.93,243.49l-21.14,21.86h-21.7c-.09,0-.16,.07-.16,.16s.07,.16,.16,.16h21.84l21.24-21.95c.06-.06,.06-.17,0-.23s-.17-.06-.23,0h-.01Z" fill="#231f20"></path>
      <path d="M615.13,136.04c-.05-.54-.1-1.08-.16-1.62-.06,.54-.11,1.08-.16,1.62l-.06,.81c-.02,.27-.04,.54-.06,.81v.03c0,.16,.14,.28,.3,.27s.28-.14,.27-.3c0-.27-.04-.54-.06-.81l-.06-.81h-.01Z" fill="#e6e7e8"></path>
      <path d="M615.41,140.9c-.02-.25-.23-.43-.48-.41-.22,.02-.39,.19-.41,.41-.02,.54-.03,1.08-.05,1.62s-.03,1.08-.03,1.62h0c.02,.29,.27,.51,.56,.49,.26-.02,.47-.23,.49-.49,0-.54-.02-1.08-.03-1.62s-.02-1.08-.05-1.62Z" fill="#e6e7e8"></path>
      <path d="M614.96,146.86c-.29,0-.53,.25-.53,.54l.02,1.62,.04,1.62c.02,.26,.25,.46,.51,.44,.23-.02,.42-.2,.44-.44l.04-1.62,.02-1.62h0c0-.3-.24-.54-.53-.54h0Z" fill="#e6e7e8"></path>
      <path d="M614.94,153.5c-.19,0-.33,.17-.32,.36h0c.03,.54,.06,1.08,.1,1.62s.08,1.08,.14,1.62c0,.05,.06,.09,.11,.08,.04,0,.07-.04,.08-.08,.05-.54,.1-1.08,.14-1.62s.07-1.08,.1-1.62v-.04c-.01-.18-.17-.33-.35-.32h0Z" fill="#e6e7e8"></path>
      <path d="M614.96,131.6c-1.56,0-2.82,1.26-2.82,2.82s1.26,2.82,2.82,2.82,2.82-1.26,2.82-2.82h0c0-1.56-1.26-2.82-2.81-2.82h-.01Z" fill="#5e669c"></path>
      <path d="M614.96,155.18c-1.56,0-2.81,1.26-2.81,2.82s1.26,2.81,2.82,2.81,2.81-1.26,2.81-2.82-1.26-2.82-2.82-2.82h0Z" fill="#5e669c"></path>
      <g>
        <rect x="347.41" y="123.57" width="26.2" height="34.33" fill="#ef5553"></rect>
        <path d="M368.61,617.72s-1.9,9.21,1.4,11.08l8.07,3.99s3.83,2.22,5.7,5.62l4.72,7.8s3.41,7.94,12.93,7.49l23.15-.93s14.56,1.01,13.86-14.77l-41.46,2.17-15.55-17.04-12.83-5.42h0Z" fill="#5e669c"></path>
        <polygon points="332.76 545.69 333.31 572.16 356.75 573.87 357.63 544.96 332.76 545.69" fill="#fb9a93"></polygon>
        <polygon points="372.1 549.96 373.26 585.03 396.87 580.25 397.47 550.76 372.1 549.96" fill="#fb9a93"></polygon>
        <polygon points="353.97 552.61 412.73 552.61 412.73 376.51 388.32 279.54 334.15 276.53 319.26 283.54 313.77 397.49 326.94 546.72 353.97 547.22 353.97 552.61" fill="#5e669c"></polygon>
        <g opacity=".2">
          <polygon points="364.55 288.17 365.63 404.17 412.49 404.15 412.73 397.49 375.14 397.49 374.89 296.67 367.07 288.48 364.55 288.17"></polygon>
        </g>
        <g opacity=".2">
          <path d="M314.06,400.82h11.69l9.85-122.12,21.8,3.57v-5.74l-26.19-3.03s-13.02,104.68-12.86,107.31-4.58,16.68-4.58,16.68l.29,3.33h0Z"></path>
        </g>
        <g opacity=".2">
          <polygon points="353.97 547.22 352.18 307.01 347.9 547.11 353.97 547.22"></polygon>
        </g>
        <polygon points="347.39 162.98 346.66 157.12 375.32 152.26 373.46 160.62 372.79 163.63 373.92 164.02 367.07 278.36 334.45 276.53 347.39 162.98" fill="#fff"></polygon>
        <path d="M346.66,157.12l.73,5.86c-7.55,2.36-8.18,3.17-8.18,3.17l-11.64,1.99c-6.59,1.2-10.11,2.2-10.11,2.2-12.41-26.24,13.59-35.29,13.92-35.4-.2,9.2,6.38,17.38,15.73,18.94,.65,.11,1.3,.18,1.95,.22l.12,2.58-2.53,.43h0Z" fill="#231f20"></path>
        <path d="M373.7,107.3c0,1.03-.08,2.07-.26,3.12l-4.67,27.99c-1.6,9.6-10.21,16.28-19.71,15.69-.65-.04-1.3-.11-1.95-.22-9.34-1.56-15.92-9.74-15.73-18.94,.02-.9,.1-1.81,.26-2.72l4.67-27.99c1.71-10.26,11.41-17.18,21.66-15.47,9.21,1.54,15.73,9.51,15.73,18.54Z" fill="#fb9a93"></path>
        <path d="M344.2,94.73c3.71,4.72,9.3,21.17,9.3,21.17-.54-4.96-2.64-13.05-2.64-13.05,2.84,4.27,5.98,13.3,5.98,13.3l12.11,3.14-.56,3.31c-.1,.48-.12,.87-.1,1.17,.05,.79,.85,1.29,1.59,1.01,.84-.32,1.34-1.06,1.34-1.06l-.58,12.79,.1,16.53,4.57-.77-1.86,8.36,10.57,4.34,.68,1.92,31.7,8.35c18.42-28.73-12.41-36.09-12.41-36.09-13.26-4.3-8.24-17.77-8.24-17.77,1.98-6.41,1.3-11.06,1.3-11.06-.93-18.37-21.22-24.29-21.22-24.29,6.15,.09,8.12-3.46,8.12-3.46-6.51,4.46-17.89-.57-17.89-.57-8.14-3.64-12.99-3.86-12.99-3.86-14.51-1.18-12.67,11.8-12.67,11.8-7.61-6.54-12.97,22.36-12.97,22.36l7.02,2.85s3.58-16.27,7.37-20.49c.64-.71,1.77-.67,2.36,.08h.02Z" fill="#231f20"></path>
        <path d="M347.39,162.98l-26.72,234.52-33.22-1.7,20.93-151.32s-24.31,26.81-41.28,10.92c0,0-10.73-7.23-14.45-35.95l-13.86-70.51,28.73-10.84,21.81,67.04,21.14-28.64s3.54-5.15,6.98-6.15c0,0,4.81-1.37,21.74-4.2,0,0,1.24-1.11,8.18-3.17h.02Z" fill="#F97316"></path>
        <g opacity=".2">
          <path d="M327.42,214.97c-.21,0-.4-.13-.47-.34l-5.68-17.03c-.04-.13-.03-.28,.04-.4l17.47-31.29c.13-.24,.44-.33,.68-.19,.24,.13,.33,.44,.19,.68l-17.36,31.1,5.61,16.82c.09,.26-.05,.55-.32,.63-.05,.02-.11,.03-.16,.03h0Z" fill="#fff"></path>
        </g>
        <g opacity=".2">
          <path d="M309.74,232.45l-1.36,12.03s-24.31,26.81-41.28,10.92c0,0-10.73-7.23-14.45-35.95l-13.86-70.51,21.84,73.67c1.65,5.58,4.26,10.85,7.79,15.48,7.82,10.23,22.31,20.31,41.31-5.64h0Z"></path>
        </g>
        <g opacity=".2">
          <polygon points="289.34 205.13 293.36 215.91 292.18 201.29 289.34 205.13"></polygon>
        </g>
        <path d="M370.98,584.79v8.51l-2.23,23.63s-1.16,4.81,3.36,6.86c0,0,10.63,3.56,15.4,11.09l5.42,8.32s3.88,5.85,10.35,4.94c0,0,17.61-.92,27.85-2.42l-13.86-28.49-17.5-24.04-.97-12.81c-.13-1.76-1.77-3.01-3.5-2.68l-21.92,4.19c-1.39,.27-2.4,1.48-2.4,2.9h0Z" fill="#F97316"></path>
        <path d="M391.35,640.77s.77-21.41,22.38-23.44c0,0,20-2.07,24.29,17.56,.42,1.94,.36,3.96-.29,5.84-.82,2.36-2.63,4.99-6.6,4.99,0,0-21.06,2.73-27.85,2.42,0,0-6.84,1.84-11.93-7.37Z" fill="#F97316"></path>
        <g opacity=".3">
          <path d="M391.35,640.77s.77-21.41,22.38-23.44c0,0,20-2.07,24.29,17.56,.42,1.94,.36,3.96-.29,5.84-.82,2.36-2.63,4.99-6.6,4.99,0,0-21.06,2.73-27.85,2.42,0,0-6.84,1.84-11.93-7.37Z" fill="#fff"></path>
        </g>
        <path d="M300.17,605.38l21.3-10.84c2.35-1.19,4.26-3.1,5.46-5.44l2.18-4.25c.79-1.53,1.25-3.21,1.36-4.93l.4-6.29c.08-1.26,1.16-2.23,2.42-2.17l23.43,1.07c1.26,.06,2.3,1.01,2.47,2.26l5.08,37.21s1.19,5.67-1.22,11.26h-59.41s.16-12.46-3.49-17.89h.02Z" fill="#F97316"></path>
        <path d="M303.66,623.27c0,.25-28.65,0-28.65,0,0,0,.2-19.69,25.16-17.89,0,0,3.4,4.17,3.49,17.89Z" fill="#F97316"></path>
        <g opacity=".3">
          <path d="M303.66,623.27c0,.25-28.65,0-28.65,0,0,0,.2-19.69,25.16-17.89,0,0,3.4,4.17,3.49,17.89Z" fill="#fff"></path>
        </g>
        <path d="M275,623.27s.03,3.9,4.6,4.14h75.14s5.91,1.4,8.32-4.14h-88.06Z" fill="#5e669c"></path>
        <path d="M250.05,144.69l-1.72-3.38s-15.75-13.88-11.11-16.79c0,0-3.62-4.12-.77-5.7,0,0-3.77-6.32,.6-6.81,0,0-4.56-9.84,2.31-7.43l6.97,2.58,12.52,9.06s2.08-2.68,1.8-6.4c0,0-4.35,6.33-4.27-4.27,0,0-.86-8.77,3.98-8.63,0,0,7.08-1.82,7.16,41.17l-17.48,6.6h0Z" fill="#fb9a93"></path>
        <ellipse cx="373.53" cy="129.91" rx="7.53" ry="5.72" transform="translate(226.55 497.06) rotate(-87.36)" fill="#fb9a93"></ellipse>
        <g>
          <path d="M281.58,259.41h0c2.15,0,3.88-1.74,3.88-3.88v-28.2h-7.76v28.19c0,2.15,1.73,3.89,3.88,3.89h0Z" fill="#fff"></path>
          <rect x="275.81" y="222.1" width="11.56" height="7.07" fill="#5e669c"></rect>
        </g>
        <g>
          <path d="M295.51,259.41h0c2.15,0,3.88-1.74,3.88-3.88v-28.2h-7.76v28.19c0,2.15,1.73,3.89,3.88,3.89h0Z" fill="#fff"></path>
          <rect x="289.73" y="222.1" width="11.56" height="7.07" fill="#5e669c"></rect>
        </g>
        <g>
          <path d="M309.43,259.41h0c2.15,0,3.88-1.74,3.88-3.88v-28.2h-7.76v28.19c0,2.15,1.73,3.89,3.88,3.89h0Z" fill="#fff"></path>
          <rect x="303.66" y="222.1" width="11.56" height="7.07" fill="#5e669c"></rect>
        </g>
        <g>
          <path d="M323.36,259.41h0c2.15,0,3.88-1.74,3.88-3.88v-28.2h-7.76v28.19c0,2.15,1.73,3.89,3.88,3.89h0Z" fill="#fff"></path>
          <rect x="317.59" y="222.1" width="11.56" height="7.07" fill="#5e669c"></rect>
        </g>
        <g>
          <path d="M337.29,259.41h0c2.15,0,3.88-1.74,3.88-3.88v-28.2h-7.76v28.19c0,2.15,1.73,3.89,3.88,3.89h0Z" fill="#fff"></path>
          <rect x="331.51" y="222.1" width="11.56" height="7.07" fill="#5e669c"></rect>
        </g>
        <path d="M352.38,234.49c.7,0,1.26-.56,1.26-1.26s-.56-1.26-1.26-1.26h-81c-.7,0-1.26,.56-1.26,1.26s.56,1.26,1.26,1.26h1.51v25.1h-1.51c-.7,0-1.26,.56-1.26,1.26s.56,1.26,1.26,1.26h81c.7,0,1.26-.56,1.26-1.26s-.56-1.26-1.26-1.26h-2.32v-25.1h2.32Zm-4.58,25.1h-72.68v-25.1h72.69v25.1h-.01Z" fill="#231f20"></path>
        <path d="M351.97,264.39h-2.73s-1.06,.07-2.53-1.2-3.79-3.39-9.38-4.59c-5.59-1.2-10.18-6.05-10.18-6.05,0,0-2.3-2.86-4.31-1.66s.52,5.92,3.85,8.65,3.46,3.72,1.53,4.85-9.91,2.59-12.83,1.86-13.17-5.32-24.37-3.31c0,0-3.29,.53-3.16,2.46s2.59,1.86,4.46,1.73c3.1-.16,6.2,.31,9.11,1.39,3.64,1.38,7.91,3.06,10.51,3.53s10.31,1.53,16.29,3.66,17.2,2.21,24,2.07h1.74v-13.42l-1.99,.03h-.01Z" fill="#fb9a93"></path>
        <path d="M373.46,160.62l-.67,3.01,1.13,.39-8.37,70.8s-1.72,13.21-.9,18.73l-13.68,.87,4.41,32.72,10.24,1.14,3.31,111.1h89.78l-23.15-106.14s30.59,3.85,23.16-28.86l-22.57-68.57s-3.14-17.7-19.74-20.58l-31.7-8.35-.68-1.92-10.57-4.34Z" fill="#F97316"></path>
        <g opacity=".2">
          <path d="M435.57,293.25s-32.75,.16-69.94-4.96v1.06l72.52,15.7-2.58-11.8h0Z"></path>
        </g>
        <g opacity=".2">
          <path d="M364.66,254.06c-.26,0-.49-.21-.5-.47-.01-.28,.2-.51,.47-.52l50.67-2.56-8.43-23.31c-.09-.26,.04-.55,.3-.64,.26-.09,.55,.04,.64,.3l8.66,23.95c.05,.15,.03,.31-.05,.45-.09,.13-.23,.21-.39,.22l-51.34,2.59h-.03Z"></path>
        </g>
        <g opacity=".2">
          <path d="M402.99,215.14c-.22,0-.41-.14-.48-.36-.09-.29-8.27-28.74,14.82-38.26,.25-.1,.55,.02,.65,.27,.1,.26-.02,.55-.27,.65-22.25,9.17-14.33,36.77-14.24,37.05,.08,.26-.07,.54-.34,.62-.05,0-.1,.02-.14,.02h0Z"></path>
        </g>
        <g opacity=".2">
          <path d="M370.89,253.46c-.1,0-.2-.03-.28-.09-.23-.16-.29-.47-.13-.7l16.07-23.41-5.37-7.69c-.13-.18-.12-.43,.02-.6l14.73-18.01-11.69-35.93c-.09-.26,.06-.54,.32-.63,.26-.09,.54,.06,.63,.32l11.78,36.19c.05,.16,.02,.34-.09,.47l-14.66,17.93,5.35,7.67c.12,.17,.12,.4,0,.57l-16.26,23.7c-.1,.14-.25,.22-.41,.22h-.01Z" fill="#fff"></path>
        </g>
        <polygon points="390.62 323.44 421.87 321.58 421.87 333.55 391.55 333.55 390.62 323.44" fill="#5e669c"></polygon>
        <g opacity=".45">
          <path d="M266.12,109.87c-1.82,0-3.62,.26-5.37,.76l-16.03-24.81c-.48-.75-2.82-.09-5.22,1.46s-3.96,3.42-3.48,4.16l15.94,24.67c-7.14,7.82-6.6,19.95,1.22,27.1,7.82,7.14,19.95,6.6,27.1-1.22,7.14-7.82,6.6-19.95-1.22-27.1-3.54-3.23-8.15-5.02-12.94-5.02h0Z" fill="#5e669c"></path>
        </g>
        <g opacity=".45">
          <path d="M239.5,87.28c-2.41,1.55-3.96,3.42-3.48,4.16s2.82,.09,5.22-1.46c2.4-1.55,3.96-3.41,3.48-4.16s-2.82-.09-5.22,1.46Z" fill="#5e669c"></path>
        </g>
        <g opacity=".71">
          <path d="M276.14,116.74c-.83-.61-1.75-1.09-2.73-1.42-.48-.16-.98-.28-1.48-.37,.5,.15,1.87,.93,2.21,5.12,.42,5.14-6.19,7.65-11.77,9.18-5.59,1.53-7.12,4.72-7.12,4.72-.49,.97-.74,2.04-.73,3.13,.05,3.91,3.72,6.4,3.72,6.4,7.9,4.27,17.77,1.32,22.03-6.58,1.28-2.37,1.95-5.01,1.95-7.7,0-5.3-1.87-9.34-6.09-12.48h.01Z" fill="#f43850"></path>
        </g>
        <g opacity=".8">
          <path d="M271.93,114.95c-.06,0-.12-.03-.19-.04-2.39,.25-1.26,4.54-2.46,6.87s-3.39,3.59-9.58,7.18c-6.19,3.59-5.19,8.11-5.19,8.11,0-1.09,.25-2.16,.73-3.13,0,0,1.53-3.19,7.12-4.72s12.19-4.04,11.77-9.18c-.34-4.17-1.7-4.96-2.21-5.1h0Z" fill="#f43850"></path>
        </g>
        <path d="M253.63,128.3c-2.68-2.04-10.09-4.08-12.83-4.37s-3.61,.41-3.61,.41c-1.84,1.31,.3,4.68,1.27,5.81,.34,.4,1.61,1.81,3.13,3.47-2.5-4.14,3.63-3.26,3.63-3.26,4.66,.58,8.85,.37,9.14-.51,.27-.83-.73-1.55-.73-1.55h0Z" fill="#fb9a93"></path>
        <path d="M256.23,125.47c-4.33-2.95-11.65-5.42-15.39-6.35-3.2-.8-4.15-.57-4.36-.48l-.05-.02h-.03l.03,.04c-2.87,1.31,.72,5.66,.72,5.66,0,0,.88-.7,3.63-.41,2.75,.29,10.18,2.34,12.88,4.39,0,0,2.72,.23,3.31-.77,0,0,.02-.03,.02-.05,.53-1.05-.76-2.02-.76-2.02h0Z" fill="#fb9a93"></path>
        <path d="M247.75,115.55c-4.74-2.72-7.6-3.56-9.18-3.78h-1.59c-3.93,.91-.87,6.35-.57,6.85h.03l.05,.02c.21-.08,1.16-.32,4.36,.48,3.75,.93,11.06,3.4,15.39,6.35h.28c.78,0,1.49-.45,1.81-1.16,.54-1.3-2.44-4.07-10.58-8.75h0Z" fill="#fb9a93"></path>
        <path d="M257.12,121.95c2.17-2.83-2.28-7.78-5.38-10.68-1.65-1.55-3.49-2.88-5.45-4.01-7.09-4.06-9.24-3.11-9.24-3.11-3.31,.7,0,7.87,0,7.87l20.07,9.93Z" fill="#fb9a93"></path>
        <path d="M257.12,122.45c-.07,0-.15-.02-.22-.05l-20.07-9.93c-.25-.12-.35-.42-.23-.67,.12-.25,.42-.35,.67-.23l20.07,9.93c.25,.12,.35,.42,.23,.67-.09,.18-.26,.28-.45,.28Z" fill="#ef5553"></path>
        <path d="M256.24,125.96s-.11,0-.16-.03l-19.8-6.84c-.26-.09-.4-.38-.31-.64s.38-.4,.64-.31l19.8,6.84c.26,.09,.4,.38,.31,.64-.07,.21-.27,.34-.47,.34h0Z" fill="#ef5553"></path>
        <path d="M253.65,128.8s-.07,0-.11,0l-16.43-3.78c-.27-.06-.44-.33-.38-.6s.33-.44,.6-.38l16.43,3.78c.27,.06,.44,.33,.38,.6-.05,.23-.26,.39-.49,.39h0Z" fill="#ef5553"></path>
      </g>
      <rect x="641.53" y="365.7" width="7.57" height="286.11" fill="#ca6551"></rect>
      <rect x="794.4" y="365.7" width="7.57" height="286.11" fill="#ca6551"></rect>
      <rect x="69.99" y="365.7" width="7.57" height="286.11" fill="#ca6551"></rect>
      <rect x="222.86" y="365.7" width="7.57" height="286.11" fill="#ca6551"></rect>
      <rect x="58.28" y="340.23" width="579.12" height="28.92" fill="#ec8868"></rect>
      <rect x="637.4" y="340.23" width="170.08" height="28.92" fill="#ca6551"></rect>
      <g>
        <path d="M535.91,580.25h-9.27c-54.77,22.04-53.39,64.82-53.39,64.82h4.3c.86,5.03,5.23,8.86,10.51,8.86,5.89,0,10.67-4.78,10.67-10.67s-4.78-10.67-10.67-10.67h-5.51c16.18-42,53.36-52.33,53.36-52.33h0Z" fill="#5e669c"></path>
        <g opacity=".2">
          <path d="M535.91,580.25h-9.27c-54.77,22.04-53.39,64.82-53.39,64.82h4.3c.86,5.03,5.23,8.86,10.51,8.86,5.89,0,10.67-4.78,10.67-10.67s-4.78-10.67-10.67-10.67h-5.51c16.18-42,53.36-52.33,53.36-52.33h0Z"></path>
        </g>
        <rect x="516.63" y="501.06" width="15.84" height="68.86" fill="#5e669c"></rect>
        <path d="M505.26,452.86h38.56v45.23c0,3.16-2.57,5.73-5.73,5.73h-27.11c-3.16,0-5.73-2.57-5.73-5.73v-45.23h0Z" fill="#5e669c"></path>
        <g opacity=".2">
          <path d="M505.26,452.86h38.56v45.23c0,3.16-2.57,5.73-5.73,5.73h-27.11c-3.16,0-5.73-2.57-5.73-5.73v-45.23h0Z"></path>
        </g>
        <path d="M472.21,632.59h-6.88c15.5-42.69,64.88-52.33,64.88-52.33h-19.41c-54.77,22.04-53.39,64.82-53.39,64.82h4.3c.86,5.03,5.23,8.86,10.51,8.86,5.89,0,10.67-4.78,10.67-10.67s-4.78-10.67-10.67-10.67h0Z" fill="#5e669c"></path>
        <path d="M606.14,644.98c-2.75-53.71-61.97-67.78-61.97-67.78l-8.26,3.05c54.4,15.15,62.62,54.06,62.62,54.06h0c-1.67-1.08-3.67-1.72-5.81-1.72-5.89,0-10.67,4.78-10.67,10.67s4.78,10.67,10.67,10.67c5.31,0,9.7-3.88,10.52-8.95h2.9Z" fill="#5e669c"></path>
        <rect x="451.21" y="434.96" width="146.67" height="24.1" rx="12.05" ry="12.05" fill="#5e669c"></rect>
        <rect x="505.26" y="565.1" width="38.56" height="15.15" rx="3.05" ry="3.05" fill="#5e669c"></rect>
        <g opacity=".2">
          <rect x="505.26" y="565.1" width="38.56" height="15.15" rx="3.05" ry="3.05"></rect>
        </g>
      </g>
      <g>
        <path d="M517.08,252.04c0,1.28,1.04,2.32,2.32,2.32h4.24c1.28,0,2.32-1.04,2.32-2.32h0v-9.7h-8.89v9.7h.01Z" fill="#5e669c"></path>
        <path d="M531.43,235.61l-7.3,5.61,6.71,8.76c.38,.5,.95,.82,1.57,.9l3.1,.41c1.29,.17,2.47-.73,2.65-2.02l.44-3.14c.09-.63-.08-1.27-.47-1.77l-6.71-8.75h0Z" fill="#5e669c"></path>
        <path d="M541.04,231.27l-7.89-.56-.53,7.55,7.89,.56c1.4,.1,2.61-.96,2.71-2.35l.17-2.5c.1-1.4-.96-2.61-2.35-2.71h0Z" fill="#5e669c"></path>
        <circle cx="523.23" cy="232.56" r="11.84" transform="translate(209.86 711.78) rotate(-80.78)" fill="#fff"></circle>
        <rect x="544.64" y="202.51" width="10.03" height="7.15" transform="translate(5.64 426.62) rotate(-42.62)" fill="#5e669c"></rect>
        <path d="M509.18,224.81v-10.91c0-1.17,.95-2.12,2.12-2.12h19.35c.55,0,1.08-.22,1.48-.6l4.36-4.24,11.24,11.81-12.43,13.38-44.48,13.9c-.62,.19-1.05,.77-1.05,1.43v73.59h-19.86v-81.64c0-.95,.62-1.78,1.53-2.04l36.2-10.49c.91-.26,1.54-1.1,1.54-2.05v-.02Z" fill="#F97316"></path>
        <g clip-path="url(#b)">
          <g opacity=".2">
            <circle cx="479.86" cy="286.88" r="11.31"></circle>
          </g>
        </g>
        <rect x="462.66" y="324.64" width="97.09" height="15.36" fill="#231f20"></rect>
        <polygon points="471.41 324.64 540.76 324.64 544.18 321.02 468 321.02 471.41 324.64" fill="#231f20"></polygon>
        <rect x="489.76" y="310.77" width="54.41" height="10.24" fill="#5e669c"></rect>
        <path d="M527.95,290.29h-17.05c-.83,0-1.51,.67-1.51,1.51v8.74h20.06v-8.74c0-.83-.67-1.51-1.51-1.51h.01Z" fill="#5e669c"></path>
        <path d="M526.65,300.53h-36.87v10.24h54.41l-7.71-6.61c-2.74-2.35-6.23-3.64-9.84-3.63h.01Z" fill="#fff"></path>
        <path d="M535.46,257h-21.05c-1,0-1.82,.81-1.82,1.82s.81,1.82,1.82,1.82h21.05c.93,0,1.68-.75,1.68-1.68v-.28c0-.93-.75-1.68-1.68-1.68h0Z" fill="#fff"></path>
        <path d="M535.46,256.86h-21.05c-1.08,0-1.96,.88-1.96,1.96s.88,1.96,1.96,1.96h21.05c1,0,1.81-.81,1.82-1.82v-.28c0-1-.81-1.82-1.81-1.82h-.01Zm1.54,2.09c0,.85-.69,1.54-1.54,1.54h-21.05c-.93,0-1.68-.75-1.68-1.68s.75-1.68,1.68-1.68h21.05c.85,0,1.53,.69,1.54,1.53v.29h0Z" fill="#F97316"></path>
        <g>
          <polygon points="502.35 260.63 495.1 260.63 495.1 265.1 489.76 265.1 489.76 287.73 495.1 287.73 502.35 287.73 502.35 276.42 512.59 276.42 512.59 260.63 502.35 260.63 502.35 260.63" fill="#5e669c"></polygon>
          <path d="M538.63,260.61h-26.03v5.55h26.03c1.53-.05,2.73-1.33,2.69-2.86-.05-1.46-1.22-2.64-2.69-2.69Z" fill="#5e669c"></path>
          <path d="M527.11,270.23h-14.51v6.19h14.51c1.71,0,3.09-1.39,3.09-3.1s-1.38-3.09-3.09-3.09Z" fill="#5e669c"></path>
        </g>
        <circle cx="479.85" cy="284.56" r="11.31" fill="#5e669c"></circle>
        <path d="M479.84,278.34c-3.42,0-6.19,2.77-6.19,6.19s2.77,6.19,6.19,6.19,6.19-2.77,6.19-6.19-2.77-6.19-6.19-6.19h0Z" fill="#5e669c"></path>
        <path d="M479.84,278.06c-3.57,0-6.47,2.9-6.47,6.47s2.9,6.47,6.47,6.47,6.47-2.9,6.47-6.47-2.9-6.46-6.47-6.47Zm0,12.38c-3.26,0-5.91-2.65-5.91-5.91s2.65-5.91,5.91-5.91,5.91,2.65,5.91,5.91-2.65,5.91-5.91,5.91Z" fill="#fff"></path>
        <g opacity=".2">
          <polygon points="535.07 208.3 543.73 223.04 547.73 218.73 536.5 206.92 535.07 208.3"></polygon>
        </g>
        <g opacity=".2">
          <polygon points="489.76 314.61 544.18 310.77 489.76 310.77 489.76 314.61"></polygon>
        </g>
        <rect x="462.66" y="332.1" width="97.09" height=".46" fill="#fff"></rect>
        <rect x="540.67" y="201.77" width="6.12" height="19.61" transform="translate(.36 424.06) rotate(-42.62)" fill="#5e669c"></rect>
        <rect x="549.53" y="196.14" width="10.85" height="9.23" transform="translate(10.65 428.81) rotate(-42.62)" fill="#5e669c"></rect>
      </g>
      <g>
        <path d="M230.85,249.11c-9.38-9.78-24.91-10.1-34.69-.72-9.78,9.38-10.1,24.91-.72,34.69s24.91,10.1,34.69,.72c7.39-7.09,9.6-18.03,5.54-27.43l9.01-4.77-4.07-7.67-9.76,5.18h0Z" fill="#e6e7e8"></path>
        <path d="M215.57,264.25c-12.79,6.87-23.85,2.56-23.85,2.56,0,11.57,9.41,20.94,20.98,20.93,11.56-.01,20.92-9.38,20.93-20.93,0,0-5.27-9.43-18.06-2.56Z" fill="#f43850"></path>
        <path d="M237.38,275.8h-49.87c-.88,0-1.59,.72-1.59,1.59s.71,1.59,1.59,1.59h49.87c.88,0,1.59-.72,1.59-1.59s-.71-1.59-1.59-1.59Z" fill="#231f20"></path>
        <path d="M227.02,278.97h-2.86l13.21,59.94c.19,.75,.96,1.2,1.7,1,.71-.18,1.16-.89,1.03-1.61l-13.08-59.34h0Z" fill="#231f20"></path>
        <path d="M206.89,338.31c-.05,.89,.64,1.65,1.53,1.69s1.65-.64,1.69-1.53h0l2.79-59.5h-2.67l-3.34,59.34Z" fill="#231f20"></path>
        <path d="M183.52,338.3c-.16,.65,.24,1.31,.89,1.47s1.31-.24,1.47-.89h0l14.8-59.91h-2.77l-14.4,59.33h0Z" fill="#231f20"></path>
        <path d="M209.94,314.66c-6.53-1.52-7.6-26.24-7.61-26.49l-.41,.02c.04,1.03,1.09,25.27,7.92,26.87,.69,.16,1.41,.24,2.12,.24,4.22,0,8.11-2.55,8.3-2.68l-.23-.34c-.05,.03-5.33,3.5-10.1,2.39h.01Z" fill="#231f20"></path>
        <path d="M214.5,281.06c-.32,0-.58,.26-.58,.58s.26,.58,.58,.58,.58-.26,.58-.58-.26-.58-.58-.58h0Z" fill="#fff"></path>
      </g>
      <g>
        <path d="M132.85,248.23v-28.56h-10.84v28.56l-17.18,35.33c-1.48,3.03-.22,6.69,2.82,8.16,.83,.41,1.75,.62,2.67,.62h32.78c3.37,0,6.11-2.73,6.11-6.1,0-.86-.18-1.71-.53-2.49l-15.82-35.52h-.01Z" fill="#e6e7e8"></path>
        <path d="M147.07,330.36h-59.29c-2.66,0-4.82,2.16-4.82,4.82h0c0,2.66,2.16,4.82,4.82,4.82h59.29c2.66,0,4.82-2.16,4.82-4.82h0c0-2.66-2.16-4.82-4.82-4.82Z" fill="#231f20"></path>
        <path d="M94.41,215.56h0c-.93,0-1.69,.76-1.69,1.69v113.01c0,.93,.76,1.69,1.69,1.69h0c.93,0,1.69-.76,1.69-1.69v-113.01c0-.93-.75-1.69-1.68-1.7h-.01Z" fill="#231f20"></path>
        <path d="M136.79,237.29h-49.73c-.8,.04-1.42,.71-1.38,1.51,.03,.75,.63,1.34,1.38,1.38h49.73c.8,.04,1.48-.58,1.51-1.38s-.58-1.48-1.38-1.51h-.13Z" fill="#231f20"></path>
        <path d="M137.35,266.93h-21.61l-8.62,17.04c-.97,1.92-.21,4.27,1.71,5.24,.57,.29,1.2,.43,1.83,.42l31.64-.54c2.16-.04,3.87-1.82,3.83-3.98,0-.59-.15-1.17-.42-1.69l-8.37-16.5h0Z" fill="#f43850"></path>
        <circle cx="94.41" cy="238.61" r="5.82" fill="#5e669c"></circle>
        <path d="M134.9,217.98h-15.31c-.93,0-1.69,.76-1.69,1.69s.76,1.69,1.69,1.69h15.31c.93,0,1.69-.76,1.69-1.69s-.76-1.69-1.69-1.69h0Z" fill="#e6e7e8"></path>
        <path d="M130.35,270.95c-1.21,0-2.18,.98-2.18,2.18s.98,2.18,2.18,2.18,2.18-.98,2.18-2.18h0c0-1.21-.98-2.18-2.18-2.18h0Z" fill="#fff"></path>
        <circle cx="123.53" cy="278.87" r=".58" fill="#fff"></circle>
      </g>
      <path d="M699.6,259.57h-9.24c-.06,0-.11,.05-.11,.11s.05,.11,.11,.11h9.24c.06,0,.11-.05,.11-.11s-.05-.11-.11-.11Z" fill="#231f20"></path>
      <path d="M711.68,259.57h-9.32c-.06,0-.11,.05-.11,.11s.05,.11,.11,.11h9.33c.06,0,.11-.05,.11-.11s-.05-.11-.11-.11h-.01Z" fill="#231f20"></path>
      <path d="M705.09,263.05h-14.73c-.06,0-.11,.05-.11,.11s.05,.11,.11,.11h14.73c.06,0,.11-.05,.11-.11s-.05-.11-.11-.11h0Z" fill="#231f20"></path>
      <path d="M711.68,263.05h-5.29c-.06,0-.11,.05-.11,.11s.05,.11,.11,.11h5.29c.06,0,.11-.05,.11-.11s-.05-.11-.11-.11h0Z" fill="#231f20"></path>
      <path d="M699.6,266.08h-9.24c-.06,0-.1,.07-.09,.13,0,.05,.05,.09,.09,.09h9.24c.06,0,.1-.07,.09-.13,0-.05-.05-.09-.09-.09Z" fill="#231f20"></path>
      <path d="M711.68,266.08h-9.32c-.06,0-.1,.07-.09,.13,0,.05,.05,.09,.09,.09h9.32c.06,0,.12-.03,.13-.09,0-.06-.03-.12-.09-.13h-.04Z" fill="#231f20"></path>
      <path d="M695.7,269.5h-5.35c-.06,0-.1,.07-.09,.13,0,.05,.05,.09,.09,.09h5.35c.06,0,.1-.07,.09-.13,0-.05-.05-.09-.09-.09Z" fill="#231f20"></path>
    </g>
    <path d="M349.25,136.73c-.2,.22-.36,.45-.53,.65-.32,.37-.69,.7-1.11,.95-.42,.23-.88,.37-1.36,.39-.58,.03-1.15,.02-1.73-.04,.41,.52,.99,.88,1.63,1.03,.7,.18,1.44,.08,2.07-.27,.6-.36,1.08-.9,1.35-1.54,.12-.31,.2-.63,.26-.95,.03-.32,.03-.64,0-.95-.21,.23-.4,.48-.58,.73h0Z" fill="#fff"></path>
    <path d="M341.34,115.49c-.13,0-.26-.05-.36-.15-.16-.17-4.05-4.09-9.2-1.59-.25,.12-.55,.02-.67-.23-.12-.25-.02-.55,.23-.67,5.82-2.82,10.32,1.74,10.36,1.79,.19,.2,.19,.51-.01,.71-.1,.09-.22,.14-.35,.14h0Z" fill="#231f20"></path>
    <path d="M363,115.69c-.09,0-.19-.03-.28-.08-6.12-4.05-11.23-.39-11.45-.24-.22,.16-.54,.12-.7-.11-.16-.22-.12-.53,.1-.7,.06-.04,5.88-4.24,12.59,.21,.23,.15,.29,.46,.14,.69-.1,.15-.26,.22-.42,.22h.02Z" fill="#231f20"></path>
    <ellipse cx="337.5" cy="120" rx="1.5" ry="2" fill="#231f20"></ellipse>
    <ellipse cx="349.5" cy="122" rx="1.5" ry="2" fill="#231f20"></ellipse>
    <path d="M340.29,130.7c-.08,0-.16-.02-.23-.06l-1.96-1.03c-.34-.18-.59-.48-.69-.85s-.06-.75,.13-1.09l3.38-5.98c.14-.24,.44-.32,.68-.19,.24,.14,.33,.44,.19,.68l-3.38,5.98c-.05,.1-.07,.21-.04,.31,.03,.11,.1,.19,.2,.24l1.96,1.03c.24,.13,.34,.43,.21,.68-.09,.17-.26,.27-.44,.27h0Z" fill="#ef5553"></path>
  </g>
</svg>
