<svg xmlns:dc="http://purl.org/dc/elements/1.1/" xmlns:cc="http://creativecommons.org/ns#" xmlns:rdf="http://www.w3.org/1999/02/22-rdf-syntax-ns#" xmlns:svg="http://www.w3.org/2000/svg" xmlns="http://www.w3.org/2000/svg" viewBox="0 0 82.666664 29.333332" height="29.333332" width="82.666664" xml:space="preserve" id="svg2" version="1.1"><metadata id="metadata8"><rdf:rdf><cc:work rdf:about=""><dc:format>image/svg+xml</dc:format><dc:type rdf:resource="http://purl.org/dc/dcmitype/StillImage"></dc:type></cc:work></rdf:rdf></metadata><defs id="defs6"><clipPath id="clipPath30" clipPathUnits="userSpaceOnUse"><path style="clip-rule:evenodd" id="path28" d="m 176.246,144.488 c 22.258,-11.82 18.766,-3.148 4.254,8.711 -29.152,23.821 -76.211,30.489 -111.4648,19.539 -0.4258,11.391 0.1992,22.992 2.2109,29.957 1.2344,3.813 0.0781,5.012 -2.9883,2.832 C 57.8555,198.148 52.1836,182.344 49.7695,164.898 38.0625,158.98 25.832,150.34 17.0078,140.613 c -10.59764,-10.597 -9.27342,-21.195 -2.5,-23.66 9.8242,-3.57 15.7461,4.813 21.7735,10.324 3.7031,3.387 8.6484,7.243 13.9257,10.981 4.0664,-37.703 21.0899,-79.4494 36.7696,-97.1564 18.3824,-20.7539 57.4144,-34.30082 81.2504,-15.668 7.761,6.7227 3.746,5.9844 -4.856,4.4453 C 95.582,17.7461 76.7188,101.188 70.7891,151.133 102.211,167.699 145.66,160.73 176.246,144.488 Z" data-index="0"></path></clipPath></defs><g transform="matrix(1.3333333,0,0,-1.3333333,0,29.333333)" id="g10"><g transform="scale(0.1)" id="g12"><path id="path14" style="fill: rgb(35, 31, 32); fill-opacity: 1; fill-rule: nonzero; opacity: 1;" d="m 302.219,145.391 v 7.746 h -63.992 v -7.746 h 27.234 V 76.75 h 9.519 v 68.641 z m 12.949,9.297 c -3.434,0 -6.09,-2.657 -6.09,-6.086 0,-3.434 2.656,-6.09 6.09,-6.09 3.434,0 6.09,2.656 6.09,6.09 0,3.429 -2.656,6.086 -6.09,6.086 z M 319.93,76.75 v 58.68 h -9.52 V 76.75 Z m 39.851,60.004 c -2.765,0 -5.754,-0.996 -8.191,-2.656 l -5.313,-7.86 v 9.192 h -9.519 V 76.75 h 9.519 v 33.434 c 0,13.394 7.528,19.261 17.493,18.601 v 7.195 c -1.106,0.555 -2.438,0.774 -3.989,0.774 z M 422,135.43 h -9.52 v -25.801 c 0,-20.0392 -7.304,-26.8985 -16.492,-26.8985 -7.976,0 -12.734,4.5351 -13.617,11.1797 -0.336,2.9882 -0.445,6.1988 -0.445,8.0818 v 33.438 h -9.52 v -35.207 c 0,-4.7621 0.11,-7.0863 0.551,-10.0746 1.332,-8.082 8.414,-14.9492 20.594,-14.9492 5.976,0 10.293,1 15.277,4.6524 l 3.652,6.8632 V 76.75 H 422 Z m 46.277,1.547 c -5.98,0 -12.179,-1.883 -15.5,-4.649 l -4.425,-6.312 v 9.414 h -9.524 V 55.0508 h 9.524 V 84.832 l 3.875,-5.7578 c 2.988,-2.4336 9.187,-3.875 14.058,-3.875 15.168,0 28.672,10.0742 28.672,31.7738 0,17.16 -9.519,30.004 -26.68,30.004 z m -1.992,-54.4692 c -8.414,0 -17.933,5.7578 -17.933,20.9222 v 3.211 c 0,16.828 8.746,23.027 18.488,23.027 11.734,0 17.715,-10.516 17.715,-23.801 0,-15.3865 -7.973,-23.3592 -18.27,-23.3592 z M 540.129,76.75 h 9.519 c -0.886,6.5313 -1.105,10.5156 -1.105,14.9453 V 113.73 c 0,2.543 -0.113,5.422 -0.332,7.747 -1,9.632 -6.867,15.5 -20.816,15.5 -12.95,0 -21.7,-7.196 -22.582,-19.707 h 9.964 c 0.661,8.082 4.649,12.398 12.618,12.398 7.863,0 10.96,-3.539 11.406,-8.965 0.219,-2.215 0.219,-4.539 0.219,-7.09 v -1.547 h -3.762 c -23.031,0 -32.992,-6.863 -32.992,-20.148 0,-10.8516 8.304,-16.7188 18.929,-16.7188 5.649,0 10.739,0.8867 14.723,3.6563 l 3.215,6.3086 z m -15.723,5.7578 c -7.195,0 -11.734,3.0977 -11.734,10.1836 0,10.0746 10.183,13.5076 26.348,12.2886 v -5.9761 c 0,-10.6289 -5.758,-16.4961 -14.614,-16.4961 z M 576.66,127.68 h 10.961 v 7.304 H 576.66 v 13.618 h -9.519 v -13.618 h -7.86 v -7.304 h 7.86 V 93.4648 c 0,-3.3164 0,-5.7539 0.109,-7.3046 0.555,-7.3047 4.316,-10.293 11.625,-10.293 2.656,0 5.316,0.1094 8.082,0.5508 v 6.9726 c -7.418,-0.8828 -9.742,0.3321 -10.184,5.9805 -0.113,1.5508 -0.113,2.5469 -0.113,4.5391 z m 28.012,27.008 c -3.434,0 -6.09,-2.657 -6.09,-6.086 0,-3.434 2.656,-6.09 6.09,-6.09 3.433,0 6.09,2.656 6.09,6.09 0,3.429 -2.657,6.086 -6.09,6.086 z M 609.43,76.75 v 58.68 h -9.52 V 76.75 h 9.52" data-index="1"></path><path id="path16" style="fill: rgb(189, 187, 188); fill-opacity: 1; fill-rule: evenodd; opacity: 1;" d="M 134.715,10.8164 C 126.453,9.01172 114.074,7.55469 105.371,8.125 86.2539,9.37109 67.7539,15.0977 65.3867,21.1875 c -2.8711,7.375 15.6641,9.0078 21.9375,8.0859 1.336,-0.1953 2.7383,-0.4375 4.2031,-0.7148 10.1487,-8.0352 23.0587,-14.207 36.1997,-16.7422 2.324,-0.4453 4.66,-0.7812 6.988,-1" data-index="2"></path><path id="path18" style="fill: rgb(189, 187, 188); fill-opacity: 1; fill-rule: evenodd; opacity: 1;" d="m 179.734,52.6875 c 13.524,-3.8398 11.524,2.0547 3.782,7.1133 -25.856,16.8984 -59.243,26.582 -90.4379,23.25 1.8477,-4.4805 3.8789,-8.8164 6.1211,-12.9297 1.4958,-2.7461 3.0898,-5.3984 4.7808,-7.9258 22.379,3.7539 44.563,-0.6484 75.754,-9.5078 z M 60.9141,74.2148 C 52.5938,70.2891 44.7539,65.0781 37.6523,58.4102 26.9805,47.2773 35.9492,30.0859 54.2734,41.4844 c 6.2891,3.914 12.2227,7.2383 17.918,10.0351 C 68.25,58.1523 64.418,65.8516 60.9141,74.2148" data-index="3"></path><path id="path20" style="fill:#bdbbbc;fill-opacity:1;fill-rule:evenodd;stroke:none" d="m 197.574,91.9727 c 8.875,-4.5782 9.961,0.6992 2.688,7.164 -36.336,32.2613 -77.977,40.1643 -120.3479,31.5903 1.375,-7.77 3.0859,-15.848 5.2304,-23.872 39.1175,9.118 71.1055,6.434 112.4295,-14.8823 z M 47.4023,117.582 C 38.5039,112.438 30.125,106.137 22.457,98.7109 4.98438,81.7891 15.9375,64.5234 33.5625,78.1758 40.4961,83.5469 47.3438,88.2891 54.1602,92.4141 51.5,100.566 49.1953,109.055 47.4023,117.582" data-index="4"></path><path id="path22" style="fill:#bdbbbc;fill-opacity:1;fill-rule:evenodd;stroke:none" d="m 45.3633,174.898 c -14.582,-12.308 -24.3867,-8.726 -9.5977,7.653 5.7227,6.34 11.8125,11.59 18.1992,15.82 -1.0585,-1.773 -2.0312,-3.648 -2.9218,-5.613 -2.4414,-5.36 -4.3086,-11.426 -5.6797,-17.86 z m 31.5664,34.036 c 21.0976,5.914 44.2973,3.086 67.8863,-6.926 12.235,-5.356 11.489,-11.285 1.606,-8.403 -21.715,6.333 -48.0626,6.911 -70.8165,-0.824 0.3359,3.145 0.8008,5.907 1.4101,8.067 0.7071,2.195 0.9258,4.113 0.6914,5.66 -0.1367,0.89 -0.3945,1.695 -0.7773,2.426" data-index="5"></path><g id="g24"><g clip-path="url(#clipPath30)" id="g26"><path id="path32" style="fill: rgb(244, 114, 22); fill-opacity: 1; fill-rule: evenodd; opacity: 1;" d="M 227.195,141.5 155.996,-10.5469 -20.6719,72.1836 50.5273,224.23 227.195,141.5" data-index="6"></path><path id="path34" style="fill:#fff200;fill-opacity:1;fill-rule:evenodd;stroke:none" d="m 70.5313,147.938 c 0.6093,-0.286 1.3437,-0.024 1.6289,0.593 0.289,0.61 0.0234,1.344 -0.5899,1.629 -0.6133,0.285 -1.3437,0.024 -1.6289,-0.59 -0.2891,-0.617 -0.0234,-1.343 0.5899,-1.632" data-index="7"></path><path id="path36" style="fill:#fff100;fill-opacity:1;fill-rule:evenodd;stroke:none" d="m 70.7031,148.309 c -0.4101,0.191 -0.5859,0.675 -0.3945,1.086 0.1914,0.41 0.6797,0.585 1.0898,0.394 0.4063,-0.191 0.5821,-0.68 0.3946,-1.086 -0.1953,-0.41 -0.6836,-0.586 -1.0899,-0.394 z m -0.5195,-1.114 c 1.0195,-0.476 2.2383,-0.035 2.7148,0.985 0.4805,1.023 0.043,2.242 -0.9804,2.718 -1.0235,0.481 -2.2422,0.04 -2.7188,-0.984 -0.4765,-1.023 -0.039,-2.238 0.9844,-2.719" data-index="8"></path><path id="path38" style="fill:#fff000;fill-opacity:1;fill-rule:evenodd;stroke:none" d="m 70.3555,147.57 c -0.8164,0.383 -1.168,1.352 -0.7852,2.172 0.3828,0.817 1.3555,1.172 2.1719,0.789 0.8203,-0.386 1.1719,-1.359 0.7891,-2.176 -0.3829,-0.816 -1.3594,-1.167 -2.1758,-0.785 z m -0.5196,-1.113 c 1.4297,-0.668 3.1368,-0.055 3.8047,1.379 0.6719,1.43 0.0547,3.133 -1.3789,3.805 -1.4297,0.672 -3.1328,0.05 -3.8047,-1.379 -0.6679,-1.434 -0.0547,-3.137 1.3789,-3.805" data-index="9"></path><path id="path40" style="fill:#ffef01;fill-opacity:1;fill-rule:evenodd;stroke:none" d="m 70.0078,146.828 c -1.2226,0.574 -1.7539,2.031 -1.1797,3.262 0.5742,1.226 2.0352,1.754 3.2617,1.18 1.2266,-0.575 1.7579,-2.036 1.1797,-3.262 -0.5742,-1.227 -2.0351,-1.754 -3.2617,-1.18 z m -0.5195,-1.109 c 1.8398,-0.864 4.0312,-0.071 4.8945,1.769 0.8594,1.84 0.0664,4.032 -1.7734,4.895 -1.8399,0.859 -4.0313,0.066 -4.8906,-1.774 -0.8633,-1.839 -0.0704,-4.031 1.7695,-4.89" data-index="10"></path><path id="path42" style="fill:#ffee01;fill-opacity:1;fill-rule:evenodd;stroke:none" d="m 69.6641,146.086 c -1.6368,0.769 -2.3438,2.711 -1.5743,4.348 0.7657,1.636 2.711,2.343 4.3477,1.578 1.6367,-0.766 2.3398,-2.715 1.5742,-4.352 -0.7656,-1.633 -2.7148,-2.34 -4.3476,-1.574 z m -0.5196,-1.109 c 2.2461,-1.055 4.9219,-0.082 5.9766,2.164 1.0547,2.25 0.0859,4.925 -2.1641,5.98 -2.25,1.051 -4.9257,0.082 -5.9804,-2.164 -1.0547,-2.25 -0.0821,-4.926 2.1679,-5.98" data-index="11"></path><path id="path44" style="fill:#ffed01;fill-opacity:1;fill-rule:evenodd;stroke:none" d="m 69.3164,145.348 c -2.043,0.957 -2.9258,3.39 -1.9687,5.433 0.957,2.047 3.3906,2.926 5.4375,1.969 2.0429,-0.957 2.9257,-3.391 1.9648,-5.434 -0.9531,-2.046 -3.3906,-2.929 -5.4336,-1.968 z m -0.5195,-1.114 c 2.6562,-1.242 5.8203,-0.097 7.0664,2.559 1.2422,2.66 0.0976,5.824 -2.5625,7.07 -2.6563,1.242 -5.8164,0.098 -7.0625,-2.562 -1.2461,-2.656 -0.0977,-5.821 2.5586,-7.067" data-index="12"></path><path id="path46" style="fill:#ffec01;fill-opacity:1;fill-rule:evenodd;stroke:none" d="m 68.9688,144.605 c -2.4532,1.149 -3.5118,4.071 -2.3633,6.524 1.1523,2.453 4.0703,3.512 6.5234,2.359 2.457,-1.144 3.5117,-4.066 2.3633,-6.519 -1.1484,-2.453 -4.0703,-3.512 -6.5234,-2.364 z m -0.5196,-1.109 c 3.0664,-1.433 6.7188,-0.113 8.1524,2.953 1.4375,3.067 0.1172,6.719 -2.9493,8.153 -3.0703,1.437 -6.7187,0.113 -8.1562,-2.95 -1.4336,-3.07 -0.1133,-6.718 2.9531,-8.156" data-index="13"></path><path id="path48" style="fill:#feeb01;fill-opacity:1;fill-rule:evenodd;stroke:none" d="m 68.6211,143.867 c -2.8633,1.34 -4.0938,4.746 -2.7539,7.61 1.3398,2.859 4.7461,4.093 7.6094,2.757 2.8632,-1.343 4.0976,-4.75 2.7578,-7.613 -1.3399,-2.863 -4.75,-4.094 -7.6133,-2.754 z m -0.5156,-1.113 c 3.4726,-1.625 7.6093,-0.129 9.2383,3.348 1.6289,3.476 0.1289,7.613 -3.3477,9.238 -3.4727,1.633 -7.6133,0.133 -9.2383,-3.344 -1.6289,-3.476 -0.1289,-7.613 3.3477,-9.242" data-index="14"></path><path id="path50" style="fill:#feea01;fill-opacity:1;fill-rule:evenodd;stroke:none" d="m 68.2773,143.125 c -3.2734,1.531 -4.6835,5.426 -3.1484,8.699 1.5274,3.27 5.4258,4.68 8.6953,3.149 3.2696,-1.535 4.6797,-5.426 3.1485,-8.696 -1.5313,-3.273 -5.4258,-4.683 -8.6954,-3.152 z m -0.5234,-1.109 c 3.8867,-1.821 8.5117,-0.145 10.332,3.738 1.8204,3.887 0.1446,8.512 -3.7421,10.328 -3.8829,1.82 -8.5079,0.145 -10.3282,-3.738 -1.8203,-3.887 -0.1445,-8.508 3.7383,-10.328" data-index="15"></path><path id="path52" style="fill:#fee902;fill-opacity:1;fill-rule:evenodd;stroke:none" d="m 67.9297,142.383 c -3.6797,1.726 -5.2656,6.105 -3.543,9.785 1.7227,3.68 6.1055,5.27 9.7813,3.543 3.6836,-1.723 5.2695,-6.102 3.5468,-9.785 -1.7265,-3.68 -6.1054,-5.266 -9.7851,-3.543 z m -0.5195,-1.106 c 4.2929,-2.015 9.4062,-0.164 11.414,4.133 2.0117,4.293 0.1602,9.403 -4.1328,11.414 -4.293,2.008 -9.4062,0.16 -11.4141,-4.136 -2.0156,-4.293 -0.164,-9.403 4.1329,-11.411" data-index="16"></path><path id="path54" style="fill:#fee802;fill-opacity:1;fill-rule:evenodd;stroke:none" d="m 67.582,141.645 c -4.0859,1.914 -5.8515,6.781 -3.9375,10.871 1.918,4.089 6.7852,5.851 10.875,3.937 4.086,-1.914 5.8477,-6.781 3.9336,-10.871 -1.914,-4.09 -6.7812,-5.852 -10.8711,-3.937 z m -0.5195,-1.114 c 4.7031,-2.199 10.3008,-0.172 12.5,4.532 2.2031,4.699 0.1758,10.296 -4.5234,12.5 -4.7032,2.203 -10.3047,0.175 -12.5039,-4.528 -2.2032,-4.703 -0.1758,-10.301 4.5273,-12.504" data-index="17"></path><path id="path56" style="fill:#fee702;fill-opacity:1;fill-rule:evenodd;stroke:none" d="m 67.2344,140.906 c -4.4961,2.106 -6.4375,7.457 -4.3281,11.957 2.1054,4.496 7.4609,6.434 11.957,4.328 4.5,-2.105 6.4375,-7.457 4.332,-11.957 -2.1055,-4.496 -7.4609,-6.437 -11.9609,-4.328 z m -0.5196,-1.113 c 5.1133,-2.391 11.1954,-0.191 13.5899,4.922 2.3945,5.109 0.1914,11.195 -4.9219,13.59 -5.1094,2.394 -11.1953,0.187 -13.5898,-4.922 -2.3907,-5.11 -0.1875,-11.195 4.9218,-13.59" data-index="18"></path><path id="path58" style="fill:#fee602;fill-opacity:1;fill-rule:evenodd;stroke:none" d="m 66.8906,140.164 c -4.9062,2.297 -7.0234,8.137 -4.7265,13.047 2.3007,4.906 8.1406,7.019 13.0468,4.723 4.9063,-2.297 7.0196,-8.141 4.7227,-13.047 -2.2969,-4.907 -8.1367,-7.02 -13.043,-4.723 z m -0.5234,-1.109 c 5.5234,-2.586 12.0937,-0.207 14.6797,5.312 2.5859,5.52 0.2031,12.09 -5.3164,14.676 -5.5196,2.586 -12.0899,0.207 -14.6758,-5.316 -2.5859,-5.516 -0.2031,-12.09 5.3125,-14.672" data-index="19"></path><path id="path60" style="fill:#fee502;fill-opacity:1;fill-rule:evenodd;stroke:none" d="m 66.543,139.426 c -5.3164,2.488 -7.6055,8.816 -5.1172,14.129 2.4883,5.32 8.8164,7.609 14.1289,5.121 5.3203,-2.488 7.6094,-8.821 5.1211,-14.133 -2.4883,-5.316 -8.8164,-7.609 -14.1328,-5.117 z m -0.5196,-1.113 c 5.9297,-2.778 12.9844,-0.219 15.7618,5.71 2.7773,5.926 0.2226,12.985 -5.7071,15.762 -5.9297,2.778 -12.9843,0.219 -15.7656,-5.707 -2.7773,-5.93 -0.2187,-12.988 5.7109,-15.765" data-index="20"></path><path id="path62" style="fill:#fee402;fill-opacity:1;fill-rule:evenodd;stroke:none" d="m 66.1953,138.684 c -5.7265,2.679 -8.1914,9.496 -5.5117,15.218 2.6797,5.727 9.4961,8.196 15.2227,5.512 5.7226,-2.68 8.1914,-9.496 5.5078,-15.219 -2.6797,-5.726 -9.4922,-8.191 -15.2188,-5.511 z m -0.5195,-1.11 c 6.3359,-2.972 13.8828,-0.238 16.8515,6.098 2.9688,6.34 0.2344,13.887 -6.1054,16.855 -6.336,2.965 -13.8789,0.235 -16.8477,-6.105 -2.9687,-6.336 -0.2344,-13.879 6.1016,-16.848" data-index="21"></path><path id="path64" style="fill:#fee303;fill-opacity:1;fill-rule:evenodd;stroke:none" d="m 65.8516,137.941 c -6.1368,2.872 -8.7813,10.176 -5.9102,16.309 2.875,6.133 10.1758,8.777 16.3086,5.906 6.1328,-2.875 8.7813,-10.176 5.9063,-16.308 -2.8711,-6.133 -10.1719,-8.778 -16.3047,-5.907 z m -0.5235,-1.109 c 6.7461,-3.16 14.7813,-0.25 17.9375,6.496 3.1602,6.746 0.2539,14.777 -6.4922,17.938 -6.75,3.16 -14.7812,0.254 -17.9375,-6.496 -3.164,-6.747 -0.2539,-14.778 6.4922,-17.938" data-index="22"></path><path id="path66" style="fill:#fee203;fill-opacity:1;fill-rule:evenodd;stroke:none" d="m 65.5,137.203 c -6.5391,3.063 -9.3633,10.852 -6.2969,17.391 3.0625,6.543 10.8516,9.363 17.3946,6.301 6.5429,-3.063 9.3632,-10.852 6.3007,-17.395 C 79.832,136.957 72.043,134.137 65.5,137.203 Z m -0.5156,-1.113 c 7.1523,-3.348 15.6719,-0.266 19.0234,6.89 3.3516,7.157 0.2656,15.676 -6.8906,19.024 -7.1563,3.351 -15.6719,0.269 -19.0274,-6.887 -3.3476,-7.156 -0.2656,-15.676 6.8946,-19.027" data-index="23"></path><path id="path68" style="fill:#fee103;fill-opacity:1;fill-rule:evenodd;stroke:none" d="m 65.1563,136.461 c -6.9532,3.254 -9.9493,11.531 -6.6915,18.484 3.254,6.95 11.5274,9.946 18.4805,6.692 6.9492,-3.258 9.9453,-11.532 6.6914,-18.481 -3.2578,-6.953 -11.5312,-9.949 -18.4804,-6.695 z m -0.5196,-1.109 c 7.5625,-3.543 16.5703,-0.282 20.1133,7.281 3.5391,7.566 0.2813,16.57 -7.2852,20.113 -7.5664,3.543 -16.5703,0.281 -20.1132,-7.281 -3.543,-7.567 -0.2813,-16.57 7.2851,-20.113" data-index="24"></path><path id="path70" style="fill:#fde003;fill-opacity:1;fill-rule:evenodd;stroke:none" d="m 64.8086,135.723 c -7.3594,3.445 -10.5313,12.207 -7.0859,19.566 3.4492,7.359 12.207,10.535 19.5664,7.086 7.3632,-3.445 10.5351,-12.207 7.0898,-19.57 -3.4492,-7.356 -12.2109,-10.528 -19.5703,-7.082 z m -0.5195,-1.114 c 7.9726,-3.734 17.4648,-0.296 21.1992,7.68 3.7344,7.973 0.2969,17.461 -7.6758,21.199 -7.9727,3.735 -17.4687,0.293 -21.1992,-7.679 -3.7344,-7.973 -0.3008,-17.465 7.6758,-21.2" data-index="25"></path><path id="path72" style="fill:#fddf03;fill-opacity:1;fill-rule:evenodd;stroke:none" d="m 64.4609,134.98 c -7.7656,3.641 -11.1171,12.887 -7.4765,20.657 3.6367,7.769 12.8867,11.117 20.6523,7.48 7.7696,-3.64 11.1211,-12.887 7.4805,-20.656 -3.6367,-7.77 -12.8867,-11.117 -20.6563,-7.481 z m -0.5195,-1.109 c 8.3828,-3.926 18.3594,-0.312 22.2852,8.07 3.9297,8.383 0.3125,18.36 -8.0703,22.286 -8.379,3.925 -18.3594,0.312 -22.2852,-8.071 -3.9258,-8.383 -0.3125,-18.363 8.0703,-22.285" data-index="26"></path><path id="path74" style="fill:#fdde03;fill-opacity:1;fill-rule:evenodd;stroke:none" d="m 64.1172,134.238 c -8.1797,3.832 -11.707,13.567 -7.875,21.742 3.8281,8.184 13.5664,11.708 21.7422,7.875 8.1797,-3.828 11.7031,-13.562 7.8711,-21.742 -3.8282,-8.175 -13.5625,-11.703 -21.7383,-7.875 z m -0.5195,-1.109 c 8.789,-4.117 19.2539,-0.324 23.3711,8.465 4.1171,8.793 0.3281,19.258 -8.4649,23.375 -8.7891,4.113 -19.2539,0.324 -23.3711,-8.465 -4.1211,-8.793 -0.3281,-19.258 8.4649,-23.375" data-index="27"></path><path id="path76" style="fill:#fddd04;fill-opacity:1;fill-rule:evenodd;stroke:none" d="m 63.7695,133.5 c -8.5898,4.023 -12.289,14.242 -8.2695,22.832 4.0234,8.586 14.2461,12.285 22.832,8.266 8.586,-4.02 12.2891,-14.243 8.2696,-22.828 -4.0235,-8.59 -14.2461,-12.293 -22.8321,-8.27 z m -0.5234,-1.109 c 9.2031,-4.309 20.1523,-0.344 24.4609,8.855 4.3086,9.203 0.3438,20.152 -8.8554,24.461 -9.1993,4.309 -20.1524,0.344 -24.461,-8.859 -4.3086,-9.2 -0.3437,-20.149 8.8555,-24.457" data-index="28"></path><path id="path78" style="fill:#fddb04;fill-opacity:1;fill-rule:evenodd;stroke:none" d="m 63.4219,132.762 c -8.9961,4.211 -12.875,14.918 -8.6602,23.914 4.211,8.996 14.9219,12.875 23.9141,8.664 9,-4.215 12.875,-14.922 8.664,-23.918 -4.2109,-8.996 -14.9218,-12.875 -23.9179,-8.66 z m -0.5196,-1.114 c 9.6094,-4.5 21.0469,-0.355 25.5469,9.254 4.5,9.61 0.3594,21.047 -9.25,25.543 -9.6094,4.504 -21.0469,0.364 -25.5508,-9.246 -4.4961,-9.609 -0.3554,-21.051 9.2539,-25.551" data-index="29"></path><path id="path80" style="fill:#fdda04;fill-opacity:1;fill-rule:evenodd;stroke:none" d="m 63.0742,132.02 c -9.4062,4.402 -13.457,15.601 -9.0547,25.003 4.4063,9.403 15.6016,13.457 25.0078,9.055 9.4024,-4.406 13.4571,-15.598 9.0508,-25.004 -4.4023,-9.406 -15.5976,-13.457 -25.0039,-9.054 z m -0.5195,-1.11 c 10.0195,-4.691 21.9453,-0.375 26.6367,9.645 4.6914,10.019 0.3711,21.945 -9.6484,26.636 -10.0157,4.692 -21.9414,0.372 -26.6328,-9.648 -4.6914,-10.016 -0.375,-21.941 9.6445,-26.633" data-index="30"></path><path id="path82" style="fill:#fdda04;fill-opacity:1;fill-rule:evenodd;stroke:none" d="m 62.7305,131.277 c -9.8164,4.598 -14.0469,16.282 -9.4492,26.094 4.5937,9.813 16.2773,14.043 26.0898,9.449 9.8125,-4.597 14.043,-16.277 9.4492,-26.09 -4.5976,-9.816 -16.2773,-14.046 -26.0898,-9.453 z m -0.5235,-1.109 c 10.4297,-4.883 22.8399,-0.387 27.7227,10.039 4.8867,10.43 0.3906,22.84 -10.0391,27.723 -10.4258,4.883 -22.8398,0.386 -27.7187,-10.039 -4.8867,-10.426 -0.3906,-22.84 10.0351,-27.723" data-index="31"></path><path id="path84" style="fill:#fdd904;fill-opacity:1;fill-rule:evenodd;stroke:none" d="m 62.3789,130.539 c -10.2187,4.785 -14.625,16.957 -9.8398,27.176 4.789,10.223 16.957,14.633 27.1797,9.844 10.2226,-4.789 14.6289,-16.954 9.8398,-27.18 -4.7852,-10.223 -16.9531,-14.629 -27.1797,-9.84 z m -0.5156,-1.113 c 10.8359,-5.074 23.7344,-0.403 28.8086,10.433 5.0742,10.84 0.4023,23.735 -10.4336,28.809 -10.836,5.074 -23.7344,0.402 -28.8086,-10.43 -5.0781,-10.836 -0.4063,-23.734 10.4336,-28.812" data-index="32"></path><path id="path86" style="fill:#fdd804;fill-opacity:1;fill-rule:evenodd;stroke:none" d="m 62.0352,129.797 c -10.6329,4.98 -15.2149,17.637 -10.2383,28.266 4.9804,10.632 17.6367,15.214 28.2695,10.234 C 90.6953,163.32 95.2813,150.668 90.3008,140.035 85.3203,129.402 72.668,124.82 62.0352,129.797 Z m -0.5196,-1.109 c 11.2461,-5.266 24.6289,-0.422 29.8946,10.824 5.2656,11.25 0.4179,24.633 -10.8243,29.898 -11.2461,5.266 -24.6328,0.418 -29.8984,-10.828 -5.2656,-11.242 -0.418,-24.629 10.8281,-29.894" data-index="33"></path><path id="path88" style="fill:#fdd605;fill-opacity:1;fill-rule:evenodd;stroke:none" d="m 61.6875,129.059 c -11.0391,5.171 -15.8008,18.312 -10.6289,29.351 5.1719,11.043 18.3125,15.801 29.3516,10.629 11.0429,-5.168 15.8007,-18.309 10.6328,-29.351 -5.1719,-11.04 -18.3125,-15.801 -29.3555,-10.629 z m -0.5195,-1.114 c 11.6562,-5.453 25.5234,-0.433 30.9843,11.223 5.4571,11.652 0.4336,25.523 -11.2226,30.98 -11.6524,5.461 -25.5234,0.434 -30.9805,-11.218 -5.457,-11.653 -0.4336,-25.528 11.2188,-30.985" data-index="34"></path><path id="path90" style="fill:#fdd505;fill-opacity:1;fill-rule:evenodd;stroke:none" d="m 61.3438,128.32 c -11.4532,5.36 -16.3868,18.989 -11.0235,30.438 5.3594,11.449 18.9883,16.383 30.4375,11.023 C 92.207,164.418 97.1406,150.793 91.7813,139.34 86.4219,127.891 72.793,122.957 61.3438,128.32 Z m -0.5235,-1.113 c 12.0664,-5.648 26.4219,-0.449 32.0742,11.613 5.6485,12.063 0.4453,26.422 -11.6172,32.071 -12.0625,5.648 -26.4218,0.449 -32.0703,-11.614 -5.6484,-12.062 -0.4492,-26.422 11.6133,-32.07" data-index="35"></path><path id="path92" style="fill:#fdd505;fill-opacity:1;fill-rule:evenodd;stroke:none" d="m 60.9961,127.574 c -11.8594,5.555 -16.9688,19.672 -11.418,31.528 5.5547,11.859 19.668,16.972 31.5274,11.418 11.8593,-5.551 16.9687,-19.668 11.414,-31.528 -5.5507,-11.855 -19.664,-16.969 -31.5234,-11.418 z m -0.5195,-1.105 c 12.4726,-5.844 27.3164,-0.465 33.1562,12.008 5.8399,12.468 0.4649,27.312 -12.0078,33.156 -12.4727,5.84 -27.3164,0.465 -33.1562,-12.008 -5.8438,-12.473 -0.4649,-27.316 12.0078,-33.156" data-index="36"></path><path id="path94" style="fill:#fcd405;fill-opacity:1;fill-rule:evenodd;stroke:none" d="m 60.6484,126.836 c -12.2695,5.746 -17.5546,20.348 -11.8125,32.617 5.7461,12.266 20.3477,17.555 32.6172,11.809 12.2657,-5.746 17.5547,-20.348 11.8086,-32.614 C 87.5195,126.379 72.918,121.094 60.6484,126.836 Z m -0.5234,-1.109 c 12.8867,-6.036 28.2148,-0.481 34.2461,12.398 6.0349,12.883 0.4805,28.215 -12.3984,34.246 -12.8829,6.031 -28.2149,0.481 -34.2461,-12.402 -6.0313,-12.879 -0.4805,-28.211 12.3984,-34.242" data-index="37"></path><path id="path96" style="fill:#fcd305;fill-opacity:1;fill-rule:evenodd;stroke:none" d="m 60.3008,126.098 c -12.6758,5.933 -18.1406,21.023 -12.2031,33.699 5.9336,12.676 21.0234,18.141 33.6992,12.203 12.6758,-5.934 18.1445,-21.023 12.207,-33.699 -5.9375,-12.68 -21.0234,-18.141 -33.7031,-12.203 z m -0.5195,-1.114 c 13.289,-6.222 29.1093,-0.492 35.332,12.797 6.2227,13.289 0.4961,29.11 -12.793,35.332 -13.293,6.223 -29.1094,0.496 -35.3359,-12.797 -6.2227,-13.289 -0.4922,-29.105 12.7969,-35.332" data-index="38"></path><path id="path98" style="fill:#fcd106;fill-opacity:1;fill-rule:evenodd;stroke:none" d="m 59.9531,125.355 c -13.082,6.125 -18.7265,21.704 -12.5976,34.79 6.1289,13.082 21.7031,18.722 34.789,12.597 13.086,-6.129 18.7265,-21.703 12.5977,-34.789 C 88.6133,124.867 73.043,119.227 59.9531,125.355 Z m -0.5195,-1.109 c 13.6992,-6.414 30.0078,-0.512 36.4219,13.188 6.4145,13.699 0.5078,30.004 -13.1914,36.418 -13.6993,6.414 -30.0039,0.511 -36.418,-13.188 -6.4141,-13.699 -0.5117,-30.004 13.1875,-36.418" data-index="39"></path><path id="path100" style="fill:#fcd006;fill-opacity:1;fill-rule:evenodd;stroke:none" d="m 59.6094,124.617 c -13.4961,6.317 -19.3125,22.379 -12.9922,35.875 6.3164,13.492 22.3789,19.309 35.875,12.992 13.4922,-6.32 19.3088,-22.382 12.9922,-35.875 -6.3203,-13.496 -22.3828,-19.312 -35.875,-12.992 z m -0.5235,-1.113 c 14.1094,-6.606 30.9024,-0.527 37.5079,13.582 6.6052,14.109 0.5234,30.902 -13.5821,37.508 -14.1094,6.605 -30.8984,0.523 -37.5078,-13.582 -6.6055,-14.11 -0.5234,-30.903 13.582,-37.508" data-index="40"></path><path id="path102" style="fill:#fcd006;fill-opacity:1;fill-rule:evenodd;stroke:none" d="m 59.2617,123.875 c -13.9023,6.512 -19.8945,23.059 -13.3828,36.961 6.5078,13.906 23.0547,19.898 36.9609,13.387 13.9024,-6.512 19.8942,-23.059 13.3829,-36.965 -6.5118,-13.899 -23.0586,-19.891 -36.961,-13.383 z m -0.5195,-1.109 c 14.5156,-6.801 31.793,-0.543 38.5937,13.972 6.7971,14.52 0.5391,31.797 -13.9765,38.594 -14.5196,6.801 -31.7969,0.539 -38.5938,-13.977 -6.7968,-14.515 -0.5429,-31.792 13.9766,-38.589" data-index="41"></path><path id="path104" style="fill:#fccf06;fill-opacity:1;fill-rule:evenodd;stroke:none" d="m 58.9141,123.133 c -14.3125,6.703 -20.4805,23.738 -13.7813,38.051 6.707,14.312 23.7383,20.484 38.0508,13.777 14.3125,-6.699 20.4844,-23.734 13.7812,-38.047 -6.7031,-14.312 -23.7382,-20.48 -38.0507,-13.781 z m -0.5196,-1.11 c 14.9258,-6.988 32.6914,-0.554 39.6797,14.372 6.9918,14.925 0.5547,32.687 -14.3672,39.679 -14.9257,6.989 -32.6953,0.555 -39.6797,-14.371 -6.9921,-14.926 -0.5585,-32.691 14.3672,-39.68" data-index="42"></path><path id="path106" style="fill:#fcce06;fill-opacity:1;fill-rule:evenodd;stroke:none" d="m 58.5664,122.395 c -14.7187,6.894 -21.0664,24.414 -14.1719,39.136 6.8946,14.723 24.418,21.067 39.1368,14.172 C 98.2539,168.809 104.602,151.289 97.707,136.566 90.8125,121.848 73.2891,115.5 58.5664,122.395 Z m -0.5156,-1.114 c 15.332,-7.179 33.582,-0.566 40.7617,14.766 7.1835,15.336 0.5742,33.586 -14.7617,40.766 -15.332,7.179 -33.586,0.574 -40.7656,-14.762 -7.1836,-15.336 -0.5704,-33.586 14.7656,-40.77" data-index="43"></path><path id="path108" style="fill:#fccc06;fill-opacity:1;fill-rule:evenodd;stroke:none" d="m 58.2227,121.652 c -15.1329,7.086 -21.6524,25.094 -14.5664,40.227 7.082,15.129 25.0937,21.648 40.2226,14.566 15.1328,-7.086 21.6521,-25.093 14.5664,-40.226 C 91.3594,121.09 73.3516,114.566 58.2227,121.652 Z m -0.5235,-1.109 c 15.7461,-7.371 34.4844,-0.586 41.8594,15.156 7.3674,15.746 0.5824,34.485 -15.1602,41.856 -15.7421,7.371 -34.4804,0.586 -41.8554,-15.157 -7.3711,-15.746 -0.586,-34.484 15.1562,-41.855" data-index="44"></path><path id="path110" style="fill:#fccb06;fill-opacity:1;fill-rule:evenodd;stroke:none" d="m 57.875,120.914 c -15.5391,7.277 -22.2383,25.77 -14.9609,41.309 7.2773,15.539 25.7734,22.238 41.3086,14.961 15.5429,-7.274 22.2383,-25.77 14.9609,-41.313 C 91.9102,120.332 73.4141,113.637 57.875,120.914 Z m -0.5195,-1.109 c 16.1523,-7.567 35.375,-0.602 42.9415,15.55 7.562,16.149 0.601,35.375 -15.5509,42.942 -16.1523,7.562 -35.3789,0.601 -42.9414,-15.551 -7.5625,-16.156 -0.6016,-35.379 15.5508,-42.941" data-index="45"></path><path id="path112" style="fill:#fccb07;fill-opacity:1;fill-rule:evenodd;stroke:none" d="m 57.5273,120.172 c -15.9492,7.469 -22.8203,26.449 -15.3515,42.398 7.4648,15.95 26.4492,22.825 42.3984,15.356 15.9458,-7.469 22.8208,-26.449 15.3516,-42.399 -7.4688,-15.949 -26.4492,-22.82 -42.3985,-15.355 z m -0.5195,-1.109 c 16.5625,-7.754 36.2735,-0.618 44.0272,15.941 7.758,16.562 0.621,36.277 -15.9452,44.031 -16.5585,7.758 -36.2695,0.617 -44.0273,-15.945 -7.7539,-16.559 -0.6172,-36.274 15.9453,-44.027" data-index="46"></path><path id="path114" style="fill:#fcca07;fill-opacity:1;fill-rule:evenodd;stroke:none" d="m 57.1836,119.434 c -16.3594,7.656 -23.4102,27.129 -15.75,43.484 7.6562,16.355 27.1289,23.406 43.4844,15.746 16.355,-7.66 23.41,-27.129 15.746,-43.484 -7.6562,-16.356 -27.1249,-23.407 -43.4804,-15.746 z m -0.5234,-1.114 c 16.9726,-7.945 37.1718,-0.632 45.1168,16.34 7.95,16.969 0.633,37.172 -16.3356,45.117 -16.9726,7.946 -37.1719,0.629 -45.1172,-16.339 -7.9492,-16.969 -0.6328,-37.168 16.336,-45.118" data-index="47"></path><path id="path116" style="fill:#fcc907;fill-opacity:1;fill-rule:evenodd;stroke:none" d="M 56.832,118.691 C 40.0703,126.543 32.8398,146.5 40.6914,163.266 48.543,180.031 68.5,187.258 85.2656,179.406 102.031,171.555 109.258,151.598 101.406,134.832 93.5547,118.066 73.6016,110.84 56.832,118.691 Z m -0.5195,-1.109 c 17.3828,-8.141 38.0664,-0.648 46.2035,16.731 8.14,17.378 0.648,38.066 -16.7308,46.203 -17.3789,8.136 -38.0664,0.648 -46.2032,-16.731 -8.1406,-17.379 -0.6484,-38.066 16.7305,-46.203" data-index="48"></path><path id="path118" style="fill:#fbc707;fill-opacity:1;fill-rule:evenodd;stroke:none" d="m 56.4883,117.953 c -17.1758,8.039 -24.5781,28.485 -16.5352,45.656 8.043,17.176 28.4844,24.579 45.6602,16.539 17.1717,-8.046 24.5777,-28.488 16.5347,-45.66 -8.0425,-17.175 -28.4839,-24.582 -45.6597,-16.535 z m -0.5195,-1.113 c 17.789,-8.328 38.9609,-0.664 47.2892,17.125 8.328,17.789 0.66,38.961 -17.1252,47.289 -17.789,8.332 -38.9609,0.664 -47.293,-17.121 -8.3281,-17.789 -0.6601,-38.965 17.129,-47.293" data-index="49"></path><path id="path120" style="fill:#fbc607;fill-opacity:1;fill-rule:evenodd;stroke:none" d="m 56.1406,117.211 c -17.582,8.234 -25.164,29.164 -16.9258,46.746 8.2344,17.586 29.1602,25.164 46.7461,16.93 17.5821,-8.235 25.1601,-29.164 16.9261,-46.746 -8.2347,-17.582 -29.1604,-25.164 -46.7464,-16.93 z m -0.5195,-1.109 c 18.1953,-8.52 39.8555,-0.68 48.3789,17.519 8.52,18.195 0.676,39.852 -17.5234,48.379 -18.1953,8.52 -39.8555,0.676 -48.375,-17.523 -8.5196,-18.196 -0.6758,-39.856 17.5195,-48.375" data-index="50"></path><path id="path122" style="fill:#fbc607;fill-opacity:1;fill-rule:evenodd;stroke:none" d="m 55.793,116.469 c -17.9922,8.429 -25.7461,29.844 -17.3203,47.836 8.4257,17.992 29.8398,25.746 47.832,17.32 17.9963,-8.422 25.7503,-29.84 17.3243,-47.832 -8.4259,-17.992 -29.8399,-25.746 -47.836,-17.324 z m -0.5196,-1.11 c 18.6055,-8.711 40.75,-0.691 49.4646,17.914 8.715,18.606 0.692,40.75 -17.9099,49.465 -18.6093,8.711 -40.7539,0.692 -49.4648,-17.914 -8.7149,-18.605 -0.6953,-40.754 17.9101,-49.465" data-index="51"></path><path id="path124" style="fill:#fbc508;fill-opacity:1;fill-rule:evenodd;stroke:none" d="m 55.4453,115.73 c -18.3984,8.618 -26.332,30.52 -17.7148,48.918 8.6172,18.403 30.5195,26.336 48.9218,17.719 C 105.055,173.75 112.984,151.848 104.367,133.445 95.7539,115.043 73.8477,107.113 55.4453,115.73 Z m -0.5156,-1.113 c 19.0117,-8.902 41.6445,-0.703 50.5473,18.309 8.906,19.015 0.711,41.648 -18.3051,50.551 -19.0156,8.906 -41.6446,0.711 -50.5508,-18.305 -8.9063,-19.016 -0.707,-41.649 18.3086,-50.555" data-index="52"></path><path id="path126" style="fill:#fbc408;fill-opacity:1;fill-rule:evenodd;stroke:none" d="M 55.1016,114.988 C 36.2891,123.797 28.1836,146.188 36.9922,165 45.8008,183.809 68.1875,191.918 87,183.105 105.809,174.301 113.918,151.91 105.109,133.102 96.3008,114.289 73.9102,106.18 55.1016,114.988 Z m -0.5235,-1.109 c 19.4258,-9.098 42.5469,-0.723 51.6409,18.699 9.097,19.422 0.726,42.543 -18.6995,51.641 -19.4257,9.094 -42.5429,0.722 -51.6406,-18.703 -9.0937,-19.422 -0.7226,-42.539 18.6992,-51.637" data-index="53"></path><path id="path128" style="fill:#fbc208;fill-opacity:1;fill-rule:evenodd;stroke:none" d="m 54.7539,114.25 c -19.2187,9 -27.5039,31.875 -18.5039,51.094 9,19.219 31.875,27.504 51.0938,18.504 19.2192,-9 27.5082,-31.875 18.5082,-51.098 -9.0004,-19.219 -31.8793,-27.5 -51.0981,-18.5 z m -0.5195,-1.109 c 19.832,-9.289 43.4375,-0.743 52.7266,19.093 9.285,19.829 0.738,43.438 -19.0938,52.723 -19.8359,9.289 -43.4414,0.742 -52.7266,-19.094 -9.289,-19.832 -0.7383,-43.437 19.0938,-52.722" data-index="54"></path><path id="path130" style="fill:#fbc108;fill-opacity:1;fill-rule:evenodd;stroke:none" d="m 54.4063,113.512 c -19.625,9.187 -28.0899,32.551 -18.8946,52.179 9.1875,19.629 32.5508,28.086 52.1836,18.899 19.6247,-9.195 28.0857,-32.559 18.8947,-52.184 -9.1916,-19.629 -32.5548,-28.09 -52.1837,-18.894 z m -0.5196,-1.114 c 20.2422,-9.476 44.336,-0.753 53.8123,19.489 9.481,20.238 0.754,44.336 -19.4881,53.812 -20.2421,9.477 -44.332,0.754 -53.8125,-19.488 -9.4765,-20.242 -0.7539,-44.332 19.4883,-53.813" data-index="55"></path><path id="path132" style="fill:#fbc008;fill-opacity:1;fill-rule:evenodd;stroke:none" d="M 54.0625,112.77 C 34.0234,122.148 25.3867,146 34.7695,166.039 44.1523,186.074 68,194.711 88.0391,185.328 108.074,175.945 116.711,152.094 107.328,132.059 97.9453,112.023 74.0977,103.387 54.0625,112.77 Z m -0.5234,-1.11 c 20.6523,-9.672 45.2343,-0.773 54.9019,19.879 9.668,20.649 0.766,45.231 -19.8824,54.902 -20.6523,9.668 -45.2305,0.766 -54.8984,-19.882 -9.6719,-20.653 -0.7696,-45.231 19.8789,-54.899" data-index="56"></path><path id="path134" style="fill:#fbc008;fill-opacity:1;fill-rule:evenodd;stroke:none" d="m 53.7148,112.027 c -20.4453,9.575 -29.2578,33.911 -19.6875,54.36 9.5782,20.445 33.9102,29.258 54.3594,19.683 C 108.832,176.496 117.645,152.156 108.07,131.711 98.4961,111.27 74.1602,102.453 53.7148,112.027 Z m -0.5195,-1.109 c 21.0586,-9.863 46.125,-0.785 55.9847,20.273 9.863,21.059 0.785,46.125 -20.2737,55.989 -21.0586,9.863 -46.125,0.785 -55.9844,-20.278 -9.8633,-21.058 -0.7852,-46.125 20.2734,-55.984" data-index="57"></path><path id="path136" style="fill:#fbbf09;fill-opacity:1;fill-rule:evenodd;stroke:none" d="m 53.3672,111.289 c -20.8555,9.766 -29.8438,34.586 -20.0781,55.441 9.7656,20.856 34.5859,29.848 55.4453,20.079 20.8556,-9.766 29.8436,-34.59 20.0786,-55.442 -9.77,-20.855 -34.5903,-29.844 -55.4458,-20.078 z m -0.5195,-1.113 c 21.4648,-10.051 47.0195,-0.797 57.0743,20.672 10.055,21.465 0.797,47.019 -20.6681,57.07 C 67.7852,197.973 42.2305,188.719 32.1758,167.254 22.125,145.781 31.3789,120.23 52.8477,110.176" data-index="58"></path><path id="path138" style="fill:#fbbd09;fill-opacity:1;fill-rule:evenodd;stroke:none" d="m 53.0195,110.547 c -21.2617,9.957 -30.4297,35.266 -20.4726,56.531 9.9609,21.266 35.2695,30.43 56.5312,20.473 21.2659,-9.957 30.4339,-35.27 20.4729,-56.531 C 99.5938,109.754 74.2813,100.59 53.0195,110.547 Z M 52.5,109.438 c 21.875,-10.2466 47.918,-0.813 58.164,21.062 10.242,21.875 0.813,47.914 -21.0663,58.16 -21.875,10.242 -47.9141,0.817 -58.1602,-21.062 C 21.1914,145.719 30.625,119.68 52.5,109.438" data-index="59"></path><path id="path140" style="fill:#fabc09;fill-opacity:1;fill-rule:evenodd;stroke:none" d="M 52.6758,109.809 C 31,119.957 21.6563,145.75 31.8086,167.426 41.957,189.098 67.7539,198.438 89.4258,188.293 111.098,178.141 120.441,152.344 110.293,130.672 100.145,109 74.3438,99.6563 52.6758,109.809 Z m -0.5235,-1.114 c 22.2852,-10.4333 48.8127,-0.828 59.2497,21.457 10.434,22.286 0.832,48.813 -21.4528,59.25 -22.289,10.434 -48.8125,0.828 -59.25,-21.457 -10.4375,-22.289 -0.832,-48.812 21.4531,-59.25" data-index="60"></path><path id="path142" style="fill:#fabb09;fill-opacity:1;fill-rule:evenodd;stroke:none" d="m 52.3242,109.066 c -22.082,10.34 -31.5976,36.622 -21.2539,58.704 10.336,22.082 36.6211,31.601 58.7031,21.261 22.0786,-10.34 31.5976,-36.625 21.2576,-58.707 -10.34,-22.082 -36.6247,-31.5974 -58.7068,-21.258 z m -0.5156,-1.109 C 74.5,97.3281 101.516,107.109 112.145,129.805 122.77,152.5 112.988,179.516 90.293,190.141 67.5977,200.77 40.5859,190.988 29.957,168.293 19.332,145.594 29.1133,118.586 51.8086,107.957" data-index="61"></path><path id="path144" style="fill:#fabb09;fill-opacity:1;fill-rule:evenodd;stroke:none" d="m 51.9805,108.324 c -22.4922,10.535 -32.1836,37.301 -21.6524,59.797 10.5313,22.488 37.3008,32.184 59.793,21.649 C 112.609,179.238 122.305,152.469 111.77,129.98 101.242,107.488 74.4688,97.7969 51.9805,108.324 Z m -0.5196,-1.109 c 23.1016,-10.8166 50.6021,-0.86 61.4221,22.242 10.82,23.106 0.863,50.606 -22.2424,61.426 -23.1054,10.82 -50.6054,0.859 -61.4218,-22.246 -10.8204,-23.102 -0.8633,-50.602 22.2421,-61.422" data-index="62"></path><path id="path146" style="fill:#faba09;fill-opacity:1;fill-rule:evenodd;stroke:none" d="m 51.6328,107.586 c -22.8984,10.723 -32.7695,37.977 -22.0469,60.879 10.7227,22.898 37.9805,32.769 60.8789,22.047 C 113.363,179.785 123.238,152.531 112.516,129.633 101.789,106.734 74.5313,96.8633 51.6328,107.586 Z m -0.5195,-1.109 c 23.5117,-11.0122 51.4997,-0.879 62.5077,22.636 11.016,23.512 0.879,51.5 -22.6327,62.508 -23.5156,11.012 -51.5,0.875 -62.5117,-22.637 -11.0118,-23.511 -0.8789,-51.5 22.6367,-62.507" data-index="63"></path><path id="path148" style="fill:#fab80a;fill-opacity:1;fill-rule:evenodd;stroke:none" d="m 51.2852,106.848 c -23.3047,10.91 -33.3555,38.656 -22.4375,61.965 10.914,23.308 38.6562,33.355 61.9648,22.441 23.3085,-10.918 33.3555,-38.66 22.4415,-61.969 C 102.336,105.977 74.5938,95.9297 51.2852,106.848 Z m -0.5196,-1.114 c 23.9219,-11.2027 52.3984,-0.89 63.5974,23.032 11.203,23.922 0.891,52.394 -23.031,63.597 -23.9218,11.2 -52.3945,0.891 -63.5976,-23.031 -11.2031,-23.922 -0.8906,-52.394 23.0312,-63.598" data-index="64"></path><path id="path150" style="fill:#fab70a;fill-opacity:1;fill-rule:evenodd;stroke:none" d="M 50.9414,106.105 C 27.2227,117.211 17,145.441 28.1055,169.156 39.2148,192.875 67.4414,203.098 91.1602,191.992 114.879,180.887 125.102,152.656 113.992,128.938 102.887,105.223 74.6563,94.9961 50.9414,106.105 Z m -0.5195,-1.109 c 24.3281,-11.3944 53.2891,-0.906 64.6831,23.422 11.391,24.332 0.903,53.293 -23.4253,64.687 -24.332,11.391 -53.293,0.903 -64.6836,-23.425 -11.3945,-24.332 -0.9063,-53.293 23.4258,-64.684" data-index="65"></path><path id="path152" style="fill:#fab60a;fill-opacity:1;fill-rule:evenodd;stroke:none" d="m 50.5938,105.363 c -24.125,11.301 -34.5274,40.016 -23.2266,64.141 11.2969,24.129 40.0117,34.527 64.1406,23.23 24.1252,-11.3 34.5232,-40.015 23.2262,-64.14 C 103.438,104.465 74.7188,94.0664 50.5938,105.363 Z m -0.5196,-1.109 c 24.7383,-11.5821 54.1838,-0.922 65.7698,23.816 11.586,24.743 0.922,54.188 -23.8167,65.774 -24.7382,11.586 -54.1875,0.922 -65.7734,-23.821 -11.582,-24.738 -0.918,-54.187 23.8203,-65.769" data-index="66"></path><path id="path154" style="fill:#fab60a;fill-opacity:1;fill-rule:evenodd;stroke:none" d="M 50.2461,104.625 C 25.7109,116.113 15.1367,145.316 26.625,169.852 38.1172,194.387 67.3203,204.961 91.8516,193.473 116.391,181.984 126.965,152.781 115.473,128.246 103.984,103.711 74.7813,93.1367 50.2461,104.625 Z m -0.5195,-1.113 c 25.1484,-11.7737 55.0824,-0.934 66.8594,24.215 11.777,25.148 0.937,55.078 -24.211,66.855 -25.1484,11.781 -55.0859,0.938 -66.8594,-24.207 -11.7773,-25.152 -0.9375,-55.086 24.211,-66.863" data-index="67"></path><path id="path156" style="fill:#fab50a;fill-opacity:1;fill-rule:evenodd;stroke:none" d="m 49.8984,103.883 c -24.9453,11.683 -35.6953,41.371 -24.0156,66.316 11.6836,24.942 41.375,35.696 66.3164,24.012 24.9458,-11.676 35.6958,-41.367 24.0158,-66.313 -11.68,-24.945 -41.3712,-35.6949 -66.3166,-24.015 z m -0.5195,-1.11 c 25.5586,-11.9683 55.9761,-0.953 67.9451,24.606 11.969,25.555 0.953,55.976 -24.6052,67.945 -25.5547,11.969 -55.9766,0.953 -67.9454,-24.605 -11.9687,-25.559 -0.9492,-55.977 24.6055,-67.946" data-index="68"></path><path id="path158" style="fill:#fab30b;fill-opacity:1;fill-rule:evenodd;stroke:none" d="m 49.5547,103.145 c -25.3555,11.871 -36.2813,42.046 -24.4102,67.402 11.8711,25.351 42.0508,36.281 67.4024,24.41 25.3511,-11.875 36.2811,-42.051 24.4101,-67.402 -11.871,-25.356 -42.0507,-36.2855 -67.4023,-24.41 z m -0.5234,-1.114 c 25.9687,-12.1599 56.8747,-0.965 69.0347,25 12.161,25.965 0.969,56.875 -24.9996,69.032 -25.9648,12.16 -56.8711,0.968 -69.0312,-24.997 -12.1602,-25.968 -0.9688,-56.871 24.9961,-69.035" data-index="69"></path><path id="path160" style="fill:#fab20b;fill-opacity:1;fill-rule:evenodd;stroke:none" d="m 49.2031,102.402 c -25.7578,12.063 -36.8633,42.727 -24.7968,68.489 12.0625,25.761 42.7265,36.867 68.4882,24.804 25.7575,-12.062 36.8675,-42.73 24.8005,-68.492 C 105.633,101.441 74.9688,90.3398 49.2031,102.402 Z m -0.5156,-1.109 c 26.375,-12.3516 57.7695,-0.984 70.1215,25.395 12.347,26.371 0.98,57.765 -25.3949,70.117 -26.375,12.351 -57.7696,0.984 -70.1211,-25.391 -12.3516,-26.375 -0.9844,-57.769 25.3945,-70.121" data-index="70"></path><path id="path162" style="fill:#fab10b;fill-opacity:1;fill-rule:evenodd;stroke:none" d="m 48.8594,101.66 c -26.168,12.258 -37.4531,43.406 -25.1953,69.578 12.2539,26.172 43.4062,37.45 69.5781,25.196 C 119.41,184.18 130.691,153.027 118.438,126.859 106.18,100.688 75.0313,89.4063 48.8594,101.66 Z m -0.5196,-1.105 c 26.7852,-12.5433 58.6642,-1.0003 71.2072,25.781 12.543,26.785 0.996,58.668 -25.7853,71.211 -26.7851,12.543 -58.6679,0.996 -71.207,-25.789 -12.543,-26.781 -1,-58.664 25.7851,-71.203" data-index="71"></path><path id="path164" style="fill:#f9b10b;fill-opacity:1;fill-rule:evenodd;stroke:none" d="m 48.5117,100.922 c -26.5781,12.445 -38.0351,44.086 -25.5898,70.664 12.4453,26.578 44.0859,38.035 70.664,25.59 C 120.168,184.727 131.621,153.09 119.176,126.512 106.73,99.9336 75.0938,88.4766 48.5117,100.922 Z m -0.5195,-1.1134 c 27.1914,-12.7305 59.5628,-1.0117 72.2928,26.1834 12.738,27.192 1.012,59.563 -26.1795,72.293 -27.1914,12.735 -59.5586,1.012 -72.293,-26.18 C 9.07813,144.914 20.8008,112.547 47.9922,99.8086" data-index="72"></path><path id="path166" style="fill:#f9af0b;fill-opacity:1;fill-rule:evenodd;stroke:none" d="m 48.168,100.184 c -26.9883,12.636 -38.62112,44.761 -25.9844,71.75 12.6367,26.988 44.7617,38.621 71.75,25.98 26.9884,-12.637 38.6214,-44.762 25.9844,-71.75 -12.641,-26.9882 -44.7617,-38.621 -71.75,-25.98 z m -0.5235,-1.1137 c 27.6016,-12.9258 60.4575,-1.0273 73.3825,26.5747 12.926,27.601 1.028,60.457 -26.5739,73.382 -27.6015,12.926 -60.457,1.028 -73.3828,-26.578 C 8.14844,144.852 20.0469,111.996 47.6445,99.0703" data-index="73"></path><path id="path168" style="fill:#f9ae0b;fill-opacity:1;fill-rule:evenodd;stroke:none" d="M 47.8203,99.4414 C 20.4219,112.273 8.61328,144.883 21.4414,172.277 34.2734,199.68 66.8828,211.488 94.2813,198.656 121.68,185.828 133.488,153.215 120.656,125.816 107.828,98.4219 75.2148,86.6133 47.8203,99.4414 Z M 47.3008,98.332 c 28.0078,-13.1172 61.3512,-1.0429 74.4692,26.969 13.117,28.008 1.043,61.347 -26.9692,74.465 C 66.7891,212.883 33.4492,200.809 20.332,172.801 7.21484,144.789 19.2891,111.445 47.3008,98.332" data-index="74"></path><path id="path170" style="fill:#f9ad0c;fill-opacity:1;fill-rule:evenodd;stroke:none" d="M 47.4727,98.7031 C 19.6641,111.723 7.67969,144.82 20.7031,172.625 33.7227,200.434 66.8203,212.418 94.6289,199.398 122.434,186.375 134.422,153.277 121.398,125.473 108.375,97.6641 75.2773,85.6797 47.4727,98.7031 Z m -0.5196,-1.1133 c 28.418,-13.3085 62.2459,-1.0585 75.5549,27.3592 13.308,28.422 1.058,62.25 -27.3635,75.559 C 66.7266,213.816 32.8984,201.566 19.5898,173.145 6.28125,144.727 18.5352,110.898 46.9531,97.5898" data-index="75"></path><path id="path172" style="fill:#f9ac0c;fill-opacity:1;fill-rule:evenodd;stroke:none" d="M 47.1289,97.9609 C 18.9102,111.172 6.74609,144.758 19.9609,172.973 33.1758,201.188 66.7578,213.348 94.9727,200.137 123.188,186.926 135.352,153.34 122.137,125.125 108.926,96.9102 75.3398,84.7461 47.1289,97.9609 Z m -0.5234,-1.1093 c 28.8281,-13.5 63.1445,-1.0743 76.6445,27.7534 13.5,28.829 1.074,63.141 -27.7539,76.645 C 66.668,214.746 32.3516,202.324 18.8516,173.492 5.35156,144.664 17.7773,110.352 46.6055,96.8516" data-index="76"></path><path id="path174" style="fill:#f9ac0c;fill-opacity:1;fill-rule:evenodd;stroke:none" d="M 46.7773,97.2188 C 18.1563,110.625 5.81641,144.695 19.2188,173.32 32.625,201.941 66.6992,214.281 95.3203,200.879 123.941,187.473 136.281,153.402 122.879,124.777 109.477,96.1523 75.4023,83.8164 46.7773,97.2188 Z m -0.5156,-1.1094 c 29.2344,-13.6914 64.0353,-1.0899 77.7263,28.1486 13.692,29.238 1.09,64.039 -28.1482,77.73 C 66.6055,215.68 31.8047,203.078 18.1133,173.84 4.41797,144.602 17.0195,109.801 46.2617,96.1094" data-index="77"></path><path id="path176" style="fill:#f9aa0c;fill-opacity:1;fill-rule:evenodd;stroke:none" d="M 46.4336,96.4805 C 17.3984,110.074 4.88672,144.633 18.4805,173.668 c 13.5937,29.031 48.1562,41.547 77.1875,27.949 29.031,-13.594 41.547,-48.152 27.953,-77.183 C 110.023,95.3984 75.4648,82.8828 46.4336,96.4805 Z M 45.9102,95.3672 C 75.5586,81.4883 110.848,94.2656 124.73,123.91 c 13.883,29.649 1.106,64.938 -28.5425,78.817 C 66.543,216.613 31.2539,203.832 17.3672,174.188 3.48828,144.539 16.2656,109.254 45.9102,95.3672" data-index="78"></path><path id="path178" style="fill:#f9a90c;fill-opacity:1;fill-rule:evenodd;stroke:none" d="M 46.0859,95.7383 C 16.6445,109.527 3.95313,144.57 17.7422,174.012 31.5273,203.453 66.5742,216.145 96.0117,202.359 125.457,188.57 138.148,153.527 124.359,124.082 110.574,94.6445 75.5273,81.9531 46.0859,95.7383 Z m -0.5195,-1.1094 c 30.0547,-14.0742 65.8286,-1.1211 79.9066,28.9371 14.074,30.055 1.117,65.829 -28.9378,79.903 C 66.4805,217.543 30.7031,204.586 16.6289,174.531 2.55469,144.477 15.5078,108.703 45.5664,94.6289" data-index="79"></path><path id="path180" style="fill:#f9a80c;fill-opacity:1;fill-rule:evenodd;stroke:none" d="M 45.7383,95 C 15.8906,108.977 3.01953,144.508 17,174.359 30.9766,204.211 66.5117,217.078 96.3594,203.098 126.211,189.117 139.078,153.59 125.102,123.738 111.121,93.8867 75.5898,81.0195 45.7383,95 Z m -0.5195,-1.1094 c 30.4648,-14.2695 66.7262,-1.1367 80.9922,29.3284 14.266,30.465 1.133,66.726 -29.3282,80.992 C 66.418,218.473 30.1563,205.344 15.8906,174.879 1.62109,144.418 14.7539,108.152 45.2188,93.8906" data-index="80"></path><path id="path182" style="fill:#f9a70d;fill-opacity:1;fill-rule:evenodd;stroke:none" d="M 45.3906,94.2578 C 15.1328,108.426 2.08984,144.449 16.2617,174.707 30.4297,204.969 66.4492,218.008 96.707,203.84 126.969,189.668 140.012,153.652 125.84,123.391 111.668,93.1328 75.6523,80.0859 45.3906,94.2578 Z M 44.875,93.1484 C 75.7461,78.6875 112.496,92 126.949,122.871 c 14.457,30.875 1.153,67.621 -29.7224,82.078 C 66.3555,219.406 29.6055,206.098 15.1484,175.227 0.691406,144.355 14,107.605 44.875,93.1484" data-index="81"></path><path id="path184" style="fill:#f9a70d;fill-opacity:1;fill-rule:evenodd;stroke:none" d="M 45.0469,93.5156 C 14.375,107.879 1.15625,144.387 15.5195,175.055 29.8828,205.723 66.3867,218.941 97.0547,204.578 127.723,190.219 140.941,153.715 126.578,123.043 112.219,92.375 75.7148,79.1563 45.0469,93.5156 Z m -0.5235,-1.1093 c 31.2852,-14.6485 68.5196,-1.1641 83.1676,30.1167 14.649,31.286 1.164,68.516 -30.1168,83.168 C 66.293,220.34 29.0547,206.855 14.4102,175.57 -0.238281,144.293 13.2461,107.055 44.5234,92.4063" data-index="82"></path><path id="path186" style="fill:#f9a50d;fill-opacity:1;fill-rule:evenodd;stroke:none" d="M 44.6992,92.7773 C 13.6211,107.332 0.226563,144.324 14.7773,175.398 29.332,206.477 66.3242,219.871 97.3984,205.32 128.48,190.766 141.875,153.777 127.32,122.699 112.77,91.6211 75.7773,78.2266 44.6992,92.7773 Z M 44.1797,91.668 C 75.8711,76.8281 113.59,90.4883 128.43,122.18 c 14.843,31.691 1.183,69.41 -30.5081,84.25 C 66.2305,221.273 28.5078,207.613 13.668,175.922 -1.17188,144.23 12.4883,106.504 44.1797,91.668" data-index="83"></path><path id="path188" style="fill:#f8a40d;fill-opacity:1;fill-rule:evenodd;stroke:none" d="M 44.3516,92.0391 C 12.8633,106.781 -0.707031,144.262 14.0391,175.746 28.7852,207.23 66.2617,220.805 97.75,206.063 129.234,191.316 142.805,153.84 128.063,122.352 113.316,90.8633 75.8398,77.293 44.3516,92.0391 Z M 43.832,90.9258 c 32.1016,-15.0313 70.309,-1.1953 85.34,30.9022 15.035,32.106 1.195,70.309 -30.9064,85.34 C 66.168,222.203 27.9609,208.367 12.9258,176.266 -2.10547,144.168 11.7305,105.957 43.832,90.9258" data-index="84"></path><path id="path190" style="fill:#f8a30d;fill-opacity:1;fill-rule:evenodd;stroke:none" d="M 44.0078,91.2969 C 12.1094,106.234 -1.63672,144.199 13.2969,176.094 28.2344,207.988 66.1992,221.738 98.0938,206.801 129.988,191.867 143.738,153.902 128.801,122.004 113.867,90.1055 75.9023,76.3594 44.0078,91.2969 Z m -0.5234,-1.1094 c 32.5117,-15.2266 71.2036,-1.2109 86.4296,31.2965 15.223,32.508 1.211,71.204 -31.2968,86.43 -32.5117,15.219 -71.207,1.207 -86.4297,-31.301 C -3.03906,144.105 10.9766,105.41 43.4844,90.1875" data-index="85"></path><path id="path192" style="fill:#f8a20d;fill-opacity:1;fill-rule:evenodd;stroke:none" d="M 43.6563,90.5547 C 11.3555,105.684 -2.57031,144.137 12.5586,176.441 27.6836,208.742 66.1367,222.668 98.4414,207.543 130.746,192.414 144.672,153.965 129.543,121.656 114.418,89.3516 75.9648,75.4297 43.6563,90.5547 Z m -0.5157,-1.1094 c 32.918,-15.414 72.0974,-1.2265 87.5114,31.6917 15.414,32.918 1.227,72.101 -31.6911,87.515 C 66.043,224.066 26.8633,209.879 11.4492,176.961 -3.96875,144.043 10.2188,104.863 43.1406,89.4453" data-index="86"></path><path id="path194" style="fill:#f8a10e;fill-opacity:1;fill-rule:evenodd;stroke:none" d="M 43.3125,89.8164 C 10.6016,105.133 -3.50391,144.074 11.8164,176.785 27.1367,209.5 66.0742,223.598 98.7891,208.281 131.5,192.961 145.602,154.023 130.281,121.313 114.965,88.5977 76.0273,74.4961 43.3125,89.8164 Z M 42.793,88.7031 C 76.1211,73.0977 115.789,87.4609 131.395,120.789 147,154.117 132.633,193.785 99.3086,209.391 65.9805,225 26.3125,210.633 10.707,177.309 -4.89844,143.98 9.46484,104.313 42.793,88.7031" data-index="87"></path><path id="path196" style="fill:#f8a00e;fill-opacity:1;fill-rule:evenodd;stroke:none" d="M 42.9648,89.0742 C 9.84375,104.586 -4.43359,144.012 11.0781,177.133 26.5859,210.258 66.0117,224.531 99.1328,209.02 132.258,193.512 146.531,154.086 131.023,120.965 115.512,87.8438 76.0898,73.5625 42.9648,89.0742 Z M 42.4453,87.9648 C 76.1836,72.168 116.336,86.707 132.133,120.445 147.934,154.18 133.391,194.336 99.6523,210.133 65.918,225.93 25.7617,211.387 9.96484,177.652 -5.83203,143.918 8.71094,103.762 42.4453,87.9648" data-index="88"></path><path id="path198" style="fill:#f89f0e;fill-opacity:1;fill-rule:evenodd;stroke:none" d="M 42.6172,88.3359 C 9.08594,104.035 -5.36328,143.949 10.3359,177.48 26.0391,211.012 65.9492,225.465 99.4805,209.762 133.012,194.059 147.465,154.148 131.766,120.617 116.059,87.0859 76.1523,72.6328 42.6172,88.3359 Z M 42.0977,87.2266 C 76.2422,71.2344 116.887,85.9531 132.875,120.098 148.863,154.242 134.145,194.883 100,210.871 65.8555,226.863 25.2148,212.145 9.22656,178 -6.76563,143.855 7.95703,103.215 42.0977,87.2266" data-index="89"></path><path id="path200" style="fill:#f89e0e;fill-opacity:1;fill-rule:evenodd;stroke:none" d="M 42.2734,87.5977 C 8.33203,103.488 -6.29688,143.887 9.59766,177.824 25.4922,211.77 65.8867,226.398 99.8281,210.504 133.77,194.609 148.398,154.211 132.504,120.27 116.609,86.332 76.2148,71.7031 42.2734,87.5977 Z m -0.5195,-1.1133 c 34.5508,-16.1836 75.6801,-1.2852 91.8591,33.2656 16.184,34.555 1.289,75.68 -33.265,91.863 C 65.793,227.793 24.6641,212.902 8.48438,178.348 -7.69531,143.793 7.19922,102.664 41.7539,86.4844" data-index="90"></path><path id="path202" style="fill:#f89d0e;fill-opacity:1;fill-rule:evenodd;stroke:none" d="M 41.9258,86.8516 C 7.57422,102.941 -7.23047,143.824 8.85547,178.176 24.9414,212.523 65.8242,227.328 100.176,211.242 134.523,195.16 149.332,154.273 133.242,119.926 117.16,85.5742 76.2734,70.7695 41.9258,86.8516 Z m -0.5235,-1.1055 c 34.9649,-16.375 76.5777,-1.3047 92.9527,33.6559 16.372,34.965 1.301,76.578 -33.66,92.953 C 65.7305,228.727 24.1172,213.656 7.74609,178.691 -8.62891,143.73 6.44141,102.113 41.4023,85.7461" data-index="91"></path><path id="path204" style="fill:#f89c0e;fill-opacity:1;fill-rule:evenodd;stroke:none" d="M 41.5781,86.1133 C 6.82031,102.391 -8.16406,143.762 8.11328,178.52 24.3906,213.277 65.7617,228.258 100.52,211.984 135.277,195.707 150.262,154.336 133.984,119.578 117.707,84.8164 76.3359,69.8359 41.5781,86.1133 Z m -0.5195,-1.1094 c 35.3711,-16.5664 77.4724,-1.3164 94.0354,34.0551 16.566,35.371 1.32,77.472 -34.051,94.035 C 65.668,229.656 23.5703,214.414 7.00391,179.039 -9.55859,143.668 5.6875,101.566 41.0586,85.0039" data-index="92"></path><path id="path206" style="fill:#f89b0f;fill-opacity:1;fill-rule:evenodd;stroke:none" d="M 41.2305,85.375 C 6.06641,101.84 -9.09375,143.699 7.375,178.867 c 16.4688,35.164 58.3242,50.324 93.496,33.856 35.164,-16.465 50.32,-58.325 33.856,-93.493 C 118.258,84.0625 76.3984,68.9063 41.2305,85.375 Z m -0.5196,-1.1133 c 35.7813,-16.7539 78.3711,-1.332 95.1251,34.4493 16.754,35.781 1.332,78.367 -34.449,95.125 C 65.6094,230.59 23.0195,215.168 6.26172,179.387 -10.4922,143.605 4.92969,101.02 40.7109,84.2617" data-index="93"></path><path id="path208" style="fill:#f89a0f;fill-opacity:1;fill-rule:evenodd;stroke:none" d="M 40.8867,84.6328 C 5.3125,101.293 -10.0234,143.637 6.63281,179.215 c 16.66019,35.574 59.00779,50.91 94.58219,34.25 35.574,-16.66 50.91,-59.004 34.25,-94.582 C 118.809,83.3086 76.4609,67.9727 40.8867,84.6328 Z m -0.5234,-1.1094 c 36.1914,-16.9492 79.2657,-1.3515 96.2147,34.8396 16.945,36.192 1.348,79.266 -34.844,96.211 C 65.5469,231.523 22.4727,215.922 5.52344,179.734 -11.4219,143.543 4.17578,100.469 40.3633,83.5234" data-index="94"></path><path id="path210" style="fill:#f8990f;fill-opacity:1;fill-rule:evenodd;stroke:none" d="M 40.5391,83.8945 C 4.55469,100.742 -10.957,143.574 5.89453,179.559 22.7422,215.547 65.5781,231.055 101.563,214.207 137.547,197.352 153.059,154.523 136.207,118.535 119.355,82.5547 76.5234,67.043 40.5391,83.8945 Z M 40.0195,82.7813 C 76.6172,65.6445 120.18,81.418 137.316,118.016 c 17.141,36.601 1.364,80.164 -35.234,97.3 C 65.4844,232.453 21.9219,216.676 4.78516,180.078 -12.3555,143.48 3.41797,99.9219 40.0195,82.7813" data-index="95"></path><path id="path212" style="fill:#f7980f;fill-opacity:1;fill-rule:evenodd;stroke:none" d="M 40.1914,83.1523 C 3.79688,100.195 -11.8906,143.512 5.15625,179.906 22.1953,216.301 65.5156,231.988 101.91,214.945 138.301,197.902 153.988,154.586 136.945,118.191 119.902,81.7969 76.5859,66.1094 40.1914,83.1523 Z M 39.6719,82.043 c 37.0078,-17.3321 81.0551,-1.3789 98.3871,35.629 17.328,37.008 1.375,81.055 -35.629,98.383 C 65.4219,233.383 21.3711,217.434 4.04297,180.43 -13.2891,143.418 2.66406,99.3711 39.6719,82.043" data-index="96"></path><path id="path214" style="fill:#f7970f;fill-opacity:1;fill-rule:evenodd;stroke:none" d="M 39.8438,82.4102 C 3.04297,99.6445 -12.8203,143.449 4.41016,180.254 c 17.23824,36.805 61.04294,52.664 97.84384,35.43 36.805,-17.235 52.668,-61.036 35.434,-97.84 C 120.453,81.043 76.6484,65.1758 39.8438,82.4102 Z m -0.5196,-1.1094 c 37.418,-17.5235 81.9528,-1.3906 99.4728,36.0232 17.519,37.418 1.394,81.949 -36.024,99.473 C 65.3594,234.316 20.8242,218.191 3.30469,180.773 -14.2188,143.359 1.91016,98.8203 39.3242,81.3008" data-index="97"></path><path id="path216" style="fill:#f79610;fill-opacity:1;fill-rule:evenodd;stroke:none" d="M 39.5,81.6719 C 2.28516,99.0977 -13.7539,143.391 3.67188,180.602 21.0977,217.813 65.3906,233.852 102.602,216.426 139.816,199 155.852,154.711 138.43,117.496 121,80.2852 76.7109,64.2461 39.5,81.6719 Z m -0.5234,-1.1133 c 37.8281,-17.7109 82.8474,-1.4063 100.5584,36.4184 17.715,37.824 1.41,82.847 -36.414,100.558 C 65.2969,235.25 20.2734,218.945 2.5625,181.121 -15.1484,143.297 1.15234,98.2734 38.9766,80.5586" data-index="98"></path><path id="path218" style="fill:#f79510;fill-opacity:1;fill-rule:evenodd;stroke:none" d="M 39.1523,80.9336 C 1.53125,98.5508 -14.6836,143.328 2.93359,180.945 20.5508,218.566 65.3281,234.785 102.945,217.168 140.57,199.551 156.785,154.77 139.168,117.148 121.551,79.5273 76.7734,63.3125 39.1523,80.9336 Z M 38.6328,79.8203 C 76.8672,61.918 122.371,78.3984 140.281,116.633 c 17.903,38.23 1.422,83.738 -36.812,101.644 C 65.2344,236.184 19.7266,219.703 1.82031,181.469 -16.082,143.234 0.398438,97.7227 38.6328,79.8203" data-index="99"></path><path id="path220" style="fill:#f79410;fill-opacity:1;fill-rule:evenodd;stroke:none" d="M 38.8047,80.1914 C 0.773438,98 -15.6172,143.266 2.19141,181.297 20,219.32 65.2656,235.715 103.297,217.906 141.324,200.098 157.715,154.832 139.906,116.805 122.102,78.7734 76.8359,62.3828 38.8047,80.1914 Z M 38.2852,79.082 C 76.9297,60.9844 122.922,77.6406 141.02,116.281 159.117,154.926 142.461,200.922 103.816,219.02 65.1719,237.113 19.1758,220.457 1.08203,181.813 -17.0156,143.172 -0.359375,97.1758 38.2852,79.082" data-index="100"></path><path id="path222" style="fill:#f79310;fill-opacity:1;fill-rule:evenodd;stroke:none" d="m 38.457,79.4492 c -38.4374687,18 -55.0039,63.7538 -37.00387,102.1918 17.99997,38.437 63.74997,55.007 102.18787,37.007 38.437,-18 55.007,-63.753 37.007,-102.191 -18,-38.4375 -63.7496,-55.0078 -102.191,-37.0078 z m -0.5195,-1.1094 c 39.0508,-18.289 85.5355,-1.457 103.8205,37.5982 18.289,39.05 1.457,85.531 -37.594,103.82 C 65.1094,238.043 18.6289,221.211 0.339844,182.16 -17.9492,143.109 -1.11328,96.6289 37.9375,78.3398" data-index="101"></path><path id="path224" style="fill:#f79210;fill-opacity:1;fill-rule:evenodd;stroke:none" d="M 38.1094,78.7109 C -0.734375,96.9023 -17.4805,143.141 0.710938,181.988 18.9023,220.836 65.1406,237.578 103.988,219.387 142.836,201.195 159.582,154.957 141.387,116.109 123.199,77.2617 76.9609,60.5195 38.1094,78.7109 Z M 37.5898,77.5977 C 77.0508,59.1211 124.02,76.1289 142.5,115.59 160.977,155.051 143.969,202.02 104.508,220.5 65.0469,238.977 18.0781,221.965 -0.398438,182.508 -18.8789,143.047 -1.87109,96.0781 37.5898,77.5977" data-index="102"></path><path id="path226" style="fill:#f79110;fill-opacity:1;fill-rule:evenodd;stroke:none" d="M 37.7656,77.9688 C -1.49219,96.3516 -18.4141,143.078 -0.03125,182.332 18.3516,221.59 65.0781,238.512 104.336,220.125 143.59,201.746 160.512,155.02 142.129,115.766 123.746,76.5078 77.0195,59.5859 37.7656,77.9688 Z M 37.2461,76.8594 C 77.1133,58.1875 124.57,75.3711 143.238,115.242 161.91,155.113 144.723,202.57 104.855,221.238 64.9844,239.91 17.5313,222.723 -1.14063,182.855 -19.8086,142.984 -2.625,95.5313 37.2461,76.8594" data-index="103"></path><path id="path228" style="fill:#f79011;fill-opacity:1;fill-rule:evenodd;stroke:none" d="M 37.418,77.2305 C -2.24609,95.8008 -19.3438,143.016 -0.769531,182.68 17.8047,222.348 65.0156,239.441 104.684,220.871 144.348,202.293 161.445,155.082 142.871,115.418 124.293,75.7539 77.082,58.6523 37.418,77.2305 Z m -0.5196,-1.1133 c 40.2774,-18.8594 88.2226,-1.5 107.0816,38.7778 18.864,40.281 1.5,88.222 -38.777,107.082 C 64.9219,240.84 16.9805,223.48 -1.88281,183.199 -20.7422,142.922 -3.37891,94.9805 36.8984,76.1172" data-index="104"></path><path id="path230" style="fill:#f78f11;fill-opacity:1;fill-rule:evenodd;stroke:none" d="M 37.0703,76.4883 C -3.00391,95.2539 -20.2734,142.953 -1.50781,183.027 17.2539,223.102 64.9531,240.375 105.027,221.609 145.105,202.844 162.375,155.145 143.609,115.07 124.844,74.9961 77.1445,57.7227 37.0703,76.4883 Z m -0.5195,-1.1094 c 40.6875,-19.0547 89.1172,-1.5156 108.1722,39.1721 19.05,40.683 1.511,89.117 -39.172,108.168 C 64.8594,241.773 16.4297,224.234 -2.62109,183.547 -21.6758,142.859 -4.13672,94.4297 36.5508,75.3789" data-index="105"></path><path id="path232" style="fill:#f78e11;fill-opacity:1;fill-rule:evenodd;stroke:none" d="M 36.7227,75.7461 C -3.75781,94.707 -21.207,142.891 -2.25,183.371 c 18.957,40.484 67.1406,57.938 107.625,38.977 40.484,-18.957 57.934,-67.145 38.977,-107.625 C 125.391,74.2383 77.207,56.793 36.7227,75.7461 Z M 36.207,74.6406 c 41.0938,-19.25 90.008,-1.5312 109.254,39.5624 19.246,41.094 1.531,90.012 -39.566,109.258 C 64.7969,242.703 15.8828,224.992 -3.35938,183.895 -22.6055,142.797 -4.89063,93.8828 36.207,74.6406" data-index="106"></path><path id="path234" style="fill: rgb(247, 141, 17); fill-opacity: 1; fill-rule: evenodd; opacity: 1;" d="M 36.3789,75.0078 C -4.51563,94.1563 -22.1406,142.828 -2.99219,183.723 16.1602,224.609 64.8281,242.238 105.723,223.09 146.613,203.941 164.242,155.266 145.09,114.379 125.941,73.4844 77.2695,55.8594 36.3789,75.0078 Z M 35.8555,73.8945 C 77.3633,54.4609 126.766,72.3516 146.199,113.855 165.637,155.359 147.75,204.762 106.242,224.199 64.7344,243.637 15.332,225.746 -4.10156,184.242 -23.5391,142.734 -5.64844,93.332 35.8555,73.8945" data-index="107"></path><path id="path236" style="fill: rgb(246, 140, 17); fill-opacity: 1; fill-rule: evenodd; opacity: 1;" d="M 36.0313,74.2656 C -5.26953,93.6094 -23.0742,142.766 -3.73047,184.066 15.6094,225.367 64.7656,243.168 106.066,223.828 147.367,204.492 165.172,155.328 145.832,114.027 126.492,72.7266 77.332,54.9258 36.0313,74.2656 Z m -0.5196,-1.1093 c 41.9141,-19.629 91.8013,-1.5625 111.4293,40.3557 19.629,41.91 1.563,91.801 -40.351,111.429 C 64.6719,244.566 14.7852,226.504 -4.84375,184.59 -24.4688,142.672 -6.40234,92.7852 35.5117,73.1563" data-index="108"></path><path id="path238" style="fill: rgb(246, 139, 17); fill-opacity: 1; fill-rule: evenodd; opacity: 1;" d="M 35.6836,73.5273 C -6.02344,93.0586 -24.0039,142.703 -4.47266,184.414 15.0586,226.125 64.7031,244.102 106.418,224.57 148.125,205.039 166.102,155.391 146.574,113.684 127.039,71.9727 77.3945,53.9922 35.6836,73.5273 Z M 35.1641,72.418 C 77.4844,52.5977 127.863,70.8398 147.684,113.16 167.5,155.484 149.258,205.863 106.934,225.68 64.6094,245.5 14.2383,227.258 -5.58203,184.934 -25.4023,142.609 -7.16016,92.2344 35.1641,72.418" data-index="109"></path><path id="path240" style="fill: rgb(246, 138, 18); fill-opacity: 1; fill-rule: evenodd; opacity: 1;" d="M 35.3398,72.7891 C -6.78125,92.5078 -24.9336,142.641 -5.21094,184.762 14.5117,226.879 64.6406,245.035 106.762,225.313 148.879,205.59 167.035,155.453 147.313,113.336 127.59,71.2188 77.457,53.0625 35.3398,72.7891 Z M 34.8164,71.6758 C 77.5469,51.6641 128.414,70.082 148.422,112.816 c 20.012,42.731 1.59,93.594 -41.141,113.606 C 64.5508,246.434 13.6875,228.012 -6.32422,185.281 -26.332,142.547 -7.91406,91.6875 34.8164,71.6758" data-index="110"></path><path id="path242" style="fill: rgb(246, 137, 18); fill-opacity: 1; fill-rule: evenodd; opacity: 1;" d="M 34.9922,72.0469 C -7.53516,91.9609 -25.8672,142.578 -5.95313,185.109 13.9609,227.637 64.582,245.969 107.109,226.051 149.637,206.137 167.969,155.516 148.051,112.988 128.137,70.4648 77.5156,52.1328 34.9922,72.0469 Z m -0.5234,-1.1094 c 43.1406,-20.2031 94.4922,-1.6094 114.6952,41.5315 20.203,43.14 1.606,94.492 -41.535,114.695 C 64.4883,247.363 13.1406,228.77 -7.0625,185.625 -27.2656,142.484 -8.66797,91.1367 34.4688,70.9375" data-index="111"></path><path id="path244" style="fill: rgb(246, 136, 18); fill-opacity: 1; fill-rule: evenodd; opacity: 1;" d="M 34.6445,71.3047 C -8.29297,91.4102 -26.8008,142.516 -6.69531,185.453 13.4102,228.391 64.5195,246.898 107.457,226.793 150.395,206.684 168.902,155.578 148.793,112.645 128.688,69.707 77.5781,51.1992 34.6445,71.3047 Z M 34.125,70.1953 c 43.5469,-20.3945 95.387,-1.6211 115.777,41.9297 20.395,43.547 1.621,95.387 -41.925,115.777 C 64.4258,248.293 12.5898,229.523 -7.80078,185.977 -28.1992,142.422 -9.42578,90.5898 34.125,70.1953" data-index="112"></path><path id="path246" style="fill: rgb(246, 135, 18); fill-opacity: 1; fill-rule: evenodd; opacity: 1;" d="M 34.2969,70.5664 C -9.04688,90.8633 -27.7344,142.453 -7.43359,185.801 12.8633,229.148 64.457,247.828 107.805,227.531 151.148,207.234 169.832,155.641 149.535,112.297 129.234,68.9492 77.6406,50.2656 34.2969,70.5664 Z M 33.7773,69.4531 C 77.7344,48.8672 130.059,67.8203 150.645,111.777 171.227,155.734 152.281,208.059 108.32,228.641 64.3633,249.227 12.0391,230.281 -8.54688,186.32 -29.1289,142.363 -10.1797,90.0391 33.7773,69.4531" data-index="113"></path><path id="path248" style="fill: rgb(246, 134, 18); fill-opacity: 1; fill-rule: evenodd; opacity: 1;" d="M 33.9531,69.8242 C -9.80469,90.3125 -28.6641,142.391 -8.17578,186.148 12.3164,229.902 64.3945,248.762 108.148,228.273 151.906,207.781 170.762,155.703 150.273,111.949 129.785,68.1953 77.7031,49.3359 33.9531,69.8242 Z M 33.4297,68.7148 C 77.7969,47.9375 130.609,67.0625 151.387,111.43 172.16,155.797 153.039,208.605 108.672,229.383 64.3008,250.16 11.4922,231.035 -9.28516,186.668 -30.0586,142.301 -10.9375,89.4883 33.4297,68.7148" data-index="114"></path><path id="path250" style="fill: rgb(246, 133, 18); fill-opacity: 1; fill-rule: evenodd; opacity: 1;" d="M 33.6016,69.0859 C -10.5586,89.7656 -29.5938,142.332 -8.91406,186.492 11.7656,230.656 64.332,249.695 108.496,229.012 152.66,208.332 171.695,155.766 151.016,111.602 130.332,67.4375 77.7656,48.4023 33.6016,69.0859 Z m -0.5157,-1.1132 c 44.7735,-20.9649 98.0701,-1.668 119.0391,43.1093 20.969,44.777 1.668,98.074 -43.109,119.043 -44.7777,20.969 -98.0746,1.668 -119.0394,-43.109 -20.9688,-44.778 -1.668,-98.0746 43.1093,-119.0433" data-index="115"></path><path id="path252" style="fill:#f68412;fill-opacity:1;fill-rule:evenodd;stroke:none" d="m 33.2578,68.3438 c -44.5742,20.875 -63.7851,73.9262 -42.91014,118.5002 20.87114,44.57 73.92184,63.781 118.49634,42.91 44.57,-20.871 63.785,-73.926 42.91,-118.496 C 130.883,66.6836 77.8281,47.4727 33.2578,68.3438 Z m -0.5234,-1.1133 c 45.1875,-21.1563 98.9686,-1.6797 120.1286,43.5035 21.164,45.188 1.688,98.969 -43.5,120.129 -45.1872,21.16 -98.9685,1.684 -120.1286,-43.5 -21.1602,-45.187 -1.6836,-98.9724 43.5,-120.1325" data-index="116"></path><path id="path254" style="fill:#f68213;fill-opacity:1;fill-rule:evenodd;stroke:none" d="M 32.9102,67.6016 C -12.0703,88.668 -31.4609,142.207 -10.3945,187.188 10.668,232.168 64.207,251.559 109.188,230.492 154.168,209.43 173.559,155.891 152.492,110.906 131.434,65.9297 77.8906,46.5391 32.9102,67.6016 Z M 32.3906,66.4922 C 77.9844,45.1406 132.254,64.793 153.605,110.391 c 21.352,45.593 1.7,99.863 -43.894,121.214 C 64.1172,252.953 9.84766,233.301 -11.5039,187.707 -32.8594,142.113 -13.207,87.8438 32.3906,66.4922" data-index="117"></path><path id="path256" style="fill:#f68213;fill-opacity:1;fill-rule:evenodd;stroke:none" d="M 32.5625,66.8633 C -12.8242,88.1172 -32.3906,142.145 -11.1367,187.535 10.1211,232.926 64.1484,252.488 109.535,231.234 154.926,209.98 174.492,155.953 153.238,110.563 131.98,65.1758 77.9531,45.6055 32.5625,66.8633 Z M 32.043,65.7539 C 78.0469,44.207 132.805,64.0391 154.344,110.043 175.887,156.047 156.059,210.801 110.055,232.344 64.0547,253.887 9.29688,234.059 -12.2461,188.055 -33.7891,142.051 -13.9609,87.2969 32.043,65.7539" data-index="118"></path><path id="path258" style="fill:#f58113;fill-opacity:1;fill-rule:evenodd;stroke:none" d="m 32.2188,66.125 c -45.8008,21.4453 -65.543,75.957 -44.0938,121.758 21.44531,45.797 75.9609,65.539 121.758,44.094 45.801,-21.45 65.539,-75.961 44.094,-121.762 C 132.531,64.418 78.0156,44.6758 32.2188,66.125 Z M 31.6992,65.0117 C 78.1094,43.2773 133.352,63.2813 155.086,109.695 176.82,156.105 156.813,211.352 110.402,233.086 63.9922,254.82 8.74609,234.813 -12.9883,188.402 -34.7188,141.988 -14.7148,86.7461 31.6992,65.0117" data-index="119"></path><path id="path260" style="fill:#f58013;fill-opacity:1;fill-rule:evenodd;stroke:none" d="M 31.8711,65.3789 C -14.3359,87.0195 -34.2539,142.02 -12.6172,188.23 9.01953,234.438 64.0234,254.352 110.23,232.715 156.438,211.074 176.355,156.078 154.715,109.867 133.078,63.6602 78.0781,43.7422 31.8711,65.3789 Z M 31.3516,64.2734 C 78.1719,42.3477 133.902,62.5273 155.828,109.348 177.754,156.168 157.57,211.902 110.75,233.828 63.9297,255.75 8.19922,235.57 -13.7266,188.746 -35.6523,141.926 -15.4688,86.1992 31.3516,64.2734" data-index="120"></path><path id="path262" style="fill:#f57f13;fill-opacity:1;fill-rule:evenodd;stroke:none" d="m 31.5234,64.6406 c -46.6172,21.8282 -66.7109,77.3164 -44.8789,123.9334 21.82816,46.617 77.3164,66.711 123.9295,44.883 46.621,-21.832 66.711,-77.32 44.883,-123.934 C 133.625,62.9063 78.1406,42.8125 31.5234,64.6406 Z M 31.0039,63.5313 C 78.2344,41.4141 134.453,61.7734 156.566,109.004 178.684,156.23 158.328,212.449 111.098,234.566 63.8672,256.684 7.64844,236.324 -14.4648,189.098 -36.5859,141.863 -16.2266,85.6484 31.0039,63.5313" data-index="121"></path><path id="path264" style="fill:#f57d14;fill-opacity:1;fill-rule:evenodd;stroke:none" d="m 31.1758,63.9023 c -47.0274,22.0196 -67.293,77.9927 -45.2735,125.0197 22.02348,47.023 77.9961,67.297 125.0197,45.273 47.027,-22.019 67.297,-77.996 45.273,-125.019 C 134.176,62.1484 78.2031,41.8789 31.1758,63.9023 Z M 30.6563,62.7891 C 78.2969,40.4805 135,61.0156 157.309,108.656 c 22.308,47.637 1.773,104.34 -45.868,126.649 C 63.8047,257.613 7.09766,237.082 -15.207,189.441 -37.5156,141.805 -16.9805,85.0977 30.6563,62.7891" data-index="122"></path><path id="path266" style="fill:#f57d14;fill-opacity:1;fill-rule:evenodd;stroke:none" d="M 30.832,63.1602 C -16.6055,85.375 -37.0508,141.836 -14.8398,189.27 7.375,236.703 63.8359,257.148 111.27,234.934 158.703,212.723 179.152,156.262 156.938,108.832 134.723,61.3945 78.2656,40.9492 30.832,63.1602 Z m -0.5234,-1.1094 c 48.0469,-22.5 105.2384,-1.7891 127.7384,46.2582 22.5,48.046 1.793,105.238 -46.254,127.738 -48.0508,22.5 -105.24222,1.789 -127.7422,-46.258 -22.5,-48.047 -1.7891,-105.2382 46.2578,-127.7382" data-index="123"></path><path id="path268" style="fill:#f57c14;fill-opacity:1;fill-rule:evenodd;stroke:none" d="M 30.4805,62.4219 C -17.3594,84.8242 -37.9844,141.773 -15.5781,189.613 6.82813,237.457 63.7734,258.078 111.617,235.68 159.457,213.273 180.082,156.324 157.68,108.48 135.273,60.6367 78.3281,40.0156 30.4805,62.4219 Z M 29.9648,61.3086 C 78.418,38.6172 136.098,59.5039 158.789,107.961 181.48,156.418 160.594,214.094 112.137,236.785 63.6797,259.477 6.00391,238.594 -16.6875,190.137 -39.3789,141.68 -18.4961,84 29.9648,61.3086" data-index="124"></path><path id="path270" style="fill:#f57b14;fill-opacity:1;fill-rule:evenodd;stroke:none" d="m 30.1367,61.6797 c -48.25,22.5976 -69.0508,80.0313 -46.4531,128.2813 22.59374,48.254 80.0273,69.051 128.2814,46.457 48.25,-22.594 69.047,-80.031 46.453,-128.281 C 135.824,59.8828 78.3867,39.082 30.1367,61.6797 Z M 29.6172,60.5703 C 78.4805,37.6875 136.645,58.75 159.531,107.613 182.41,156.48 161.348,214.645 112.484,237.527 63.6172,260.41 5.45703,239.348 -17.4297,190.48 -40.3125,141.617 -19.25,83.4531 29.6172,60.5703" data-index="125"></path><path id="path272" style="fill:#f57a14;fill-opacity:1;fill-rule:evenodd;stroke:none" d="m 29.7891,60.9375 c -48.6602,22.7891 -69.6329,80.7105 -46.8477,129.3715 22.78516,48.66 80.707,69.636 129.3676,46.847 48.664,-22.785 69.636,-80.707 46.847,-129.367 C 136.371,59.1289 78.4492,38.1523 29.7891,60.9375 Z M 29.2695,59.8281 C 78.543,36.7539 137.195,57.9922 160.27,107.27 c 23.074,49.273 1.832,107.925 -47.442,131 C 63.5547,261.344 4.90625,240.102 -18.168,190.828 -41.2422,141.555 -20.0039,82.9063 29.2695,59.8281" data-index="126"></path><path id="path274" style="fill:#f57814;fill-opacity:1;fill-rule:evenodd;stroke:none" d="M 29.4414,60.1992 C -19.625,83.1758 -40.7773,141.586 -17.8008,190.656 5.17969,239.727 63.5859,260.879 112.656,237.898 161.727,214.918 182.879,156.512 159.898,107.441 136.922,58.3711 78.5117,37.2227 29.4414,60.1992 Z M 28.9219,59.0898 C 78.6055,35.8242 137.746,57.2383 161.008,106.922 c 23.269,49.683 1.851,108.82 -47.832,132.086 C 63.4961,262.273 4.35547,240.859 -18.9102,191.176 -42.1758,141.492 -20.7578,82.3555 28.9219,59.0898" data-index="127"></path><path id="path276" style="fill:#f57815;fill-opacity:1;fill-rule:evenodd;stroke:none" d="M 29.0977,59.4609 C -20.3828,82.6289 -41.7109,141.523 -18.5391,191 4.62891,240.48 63.5273,261.809 113.004,238.637 162.484,215.469 183.813,156.574 160.641,107.094 137.469,57.6172 78.5742,36.2891 29.0977,59.4609 Z M 28.5781,58.3477 C 78.668,34.8906 138.293,56.4844 161.75,106.574 185.207,156.668 163.617,216.293 113.523,239.75 63.4336,263.203 3.80859,241.613 -19.6523,191.523 -43.1094,141.43 -21.5156,81.8047 28.5781,58.3477" data-index="128"></path><path id="path278" style="fill:#f57715;fill-opacity:1;fill-rule:evenodd;stroke:none" d="m 28.75,58.7188 c -49.8906,23.3593 -71.3945,82.7422 -48.0313,132.6292 23.36333,49.89 82.7461,71.39 132.6333,48.031 49.886,-23.363 71.39,-82.742 48.027,-132.629 C 138.016,56.8594 78.6367,35.3555 28.75,58.7188 Z M 28.2305,57.6094 C 78.7305,33.957 138.844,55.7266 162.492,106.227 186.137,156.73 164.371,216.84 113.867,240.488 63.3711,264.137 3.25781,242.371 -20.3906,191.867 -44.0391,141.367 -22.2695,81.2578 28.2305,57.6094" data-index="129"></path><path id="path280" style="fill:#f57615;fill-opacity:1;fill-rule:evenodd;stroke:none" d="M 28.4063,57.9766 C -21.8945,81.5313 -43.5742,141.398 -20.0195,191.695 3.53516,241.992 63.4023,263.672 113.695,240.121 163.992,216.566 185.672,156.699 162.121,106.402 138.566,56.1055 78.6992,34.4219 28.4063,57.9766 Z M 27.8828,56.8672 C 78.793,33.0273 139.391,54.9727 163.23,105.883 187.07,156.793 165.129,217.391 114.219,241.23 63.3086,265.07 2.70703,243.125 -21.1328,192.215 -44.9688,141.305 -23.0273,80.707 27.8828,56.8672" data-index="130"></path><path id="path282" style="fill:#f47515;fill-opacity:1;fill-rule:evenodd;stroke:none" d="M 28.0547,57.2383 C -22.6484,80.9844 -44.5039,141.336 -20.7578,192.043 2.98438,242.746 63.3398,264.605 114.043,240.859 164.746,217.113 186.605,156.762 162.859,106.055 139.117,55.3477 78.7617,33.4922 28.0547,57.2383 Z M 27.5352,56.125 c 51.3203,-24.0273 112.4028,-1.9102 136.4378,49.41 24.031,51.32 1.91,112.403 -49.41,136.438 C 63.2461,266.004 2.16016,243.883 -21.8711,192.563 -45.9023,141.246 -23.7852,80.1563 27.5352,56.125" data-index="131"></path><path id="path284" style="fill:#f47315;fill-opacity:1;fill-rule:evenodd;stroke:none" d="M 27.7109,56.4961 C -23.4063,80.4336 -45.4375,141.277 -21.5039,192.391 2.43359,243.504 63.2773,265.535 114.391,241.598 165.504,217.664 187.539,156.824 163.602,105.711 139.664,54.5938 78.8242,32.5625 27.7109,56.4961 Z M 27.1875,55.3867 C 78.918,31.1641 140.488,53.4609 164.711,105.188 c 24.227,51.73 1.93,113.3 -49.801,137.523 C 63.1836,266.934 1.60938,244.637 -22.6094,192.91 -46.8359,141.184 -24.5391,79.6094 27.1875,55.3867" data-index="132"></path><path id="path286" style="fill:#f47315;fill-opacity:1;fill-rule:evenodd;stroke:none" d="M 27.3633,55.7578 C -24.1602,79.8867 -46.3711,141.215 -22.2422,192.734 1.88672,244.258 63.2148,266.469 114.738,242.34 166.262,218.215 188.469,156.887 164.344,105.359 140.215,53.8398 78.8867,31.6289 27.3633,55.7578 Z M 26.8438,54.6445 C 78.9805,30.2305 141.035,52.7031 165.449,104.844 189.867,156.98 167.395,219.035 115.258,243.449 63.1211,267.867 1.0625,245.391 -23.3516,193.254 -47.7695,141.121 -25.2969,79.0625 26.8438,54.6445" data-index="133"></path><path id="path288" style="fill:#f47216;fill-opacity:1;fill-rule:evenodd;stroke:none" d="m 27.0156,55.0156 c -51.9297,24.3203 -74.3164,86.1364 -49.9961,138.0664 24.31644,51.934 86.1328,74.316 138.0665,50 51.93,-24.32 74.316,-86.133 49.996,-138.066 C 140.766,53.082 78.9492,30.6953 27.0156,55.0156 Z M 26.668,54.2734 C 79.0117,29.7656 141.313,52.3281 165.824,104.668 190.332,157.012 167.773,219.313 115.43,243.82 63.0898,268.332 0.789063,245.773 -23.7227,193.43 -48.2344,141.09 -25.6719,78.7852 26.668,54.2734" data-index="134"></path></g></g></g></g></svg>